<?xml version="1.0" encoding="UTF-8"?>
<svg width="49.165mm" height="58.101mm" version="1.1" viewBox="0 0 49.165 58.101" xmlns="http://www.w3.org/2000/svg" xmlns:cc="http://creativecommons.org/ns#" xmlns:dc="http://purl.org/dc/elements/1.1/" xmlns:rdf="http://www.w3.org/1999/02/22-rdf-syntax-ns#">
<metadata>
<rdf:RDF>
<cc:Work rdf:about="">
<dc:format>image/svg+xml</dc:format>
<dc:type rdf:resource="http://purl.org/dc/dcmitype/StillImage"/>
<dc:title/>
</cc:Work>
</rdf:RDF>
</metadata>
<g transform="translate(-71.845 -92.569)">
<g transform="matrix(.63375 0 0 .63375 72.345 93.069)">
<path d="m73.7 15.9-16.8-12.4-0.7-0.5-0.7 0.7c-0.3 0.3-6.1 5.8-16.8 5.8h-0.2c-5.5 0-9.8-1.5-12.6-3-1.4-0.7-2.5-1.5-3.2-2-0.4-0.3-0.6-0.5-0.8-0.7l-0.2-0.2-0.6-0.7-0.7 0.5-17.1 12.3-0.4 0.3v0.8c0 26.4 8.7 43.9 17.4 54.8 8.7 11 17.4 15.3 17.5 15.3l0.5 0.2 0.5-0.2c0.1 0 8.9-4.3 17.7-15.2s17.6-28.5 17.6-55v-0.5z" fill="#103f79"/>
<path d="m37.8 86.1s-34.4-16.8-34.3-69.1l16.9-12.3s6.1 6.2 17.6 6.2h0.1c11.5 0 17.6-6.1 17.6-6.1l16.8 12.4c-0.2 52.3-34.7 68.9-34.7 68.9zm36.7-71.8-16.7-12.4-2.5-1.8-2.2 2.1c-0.1 0.2-5.3 5.1-15 5.1h-0.1c-9.7 0-14.9-5-15.1-5.2l-2.1-2.1-2.5 1.8-16.8 12.3-1.5 1.1v1.8c-0.1 54 34.8 71.6 36.2 72.3l0.7 0.4 0.9 0.4 0.9-0.4 0.7-0.3c1.5-0.7 36.4-18.2 36.6-72.1v-1.8z" fill="#f3b229"/>
<path d="m38 68.9 0.5 1.5h1.6l-1.3 1 0.5 1.5-1.3-0.8-1.3 0.9 0.5-1.5-1.3-1h1.6zm8.1 0.9 0.5 1.5h1.6l-1.3 1 0.5 1.5-1.3-0.8-1.3 0.9 0.5-1.5-1.3-1h1.6zm-16.2 0 0.5 1.5h1.6l-1.3 1 0.5 1.5-1.3-0.8-1.3 0.9 0.5-1.5-1.3-1h1.6zm4.4 3.7 0.5 1.5h1.6l-1.3 1 0.5 1.5-1.3-0.9-1.3 1 0.5-1.5-1.3-1h1.6zm7.4 0 0.5 1.5h1.6l-1.3 1 0.5 1.5-1.3-0.9-1.3 0.9 0.5-1.5-1.3-1h1.6zm-3.7 3.9 0.5 1.5h1.6l-1.3 1 0.5 1.5-1.3-0.8-1.3 0.9 0.5-1.5-1.3-1h1.6zm0-16.7 0.5 1.5h1.6l-1.3 1 0.5 1.5-1.3-0.9-1.3 0.9 0.5-1.5-1.3-1h1.6zm-7.6 0.4 0.5 1.5h1.6l-1.3 1 0.5 1.5-1.3-0.9-1.4 1 0.5-1.5-1.3-1h1.6zm15.3 0 0.5 1.5h1.6l-1.3 1 0.5 1.5-1.3-0.9-1.3 0.9 0.5-1.5-1.3-1h1.6zm-23 0.4 0.5 1.5h1.6l-1.3 1 0.5 1.5-1.3-0.9-1.3 0.9 0.5-1.5-1.3-1h1.6zm30.6 0 0.5 1.5h1.6l-1.3 1 0.5 1.5-1.3-0.9-1.3 1 0.5-1.5-1.3-1h1.6zm-27.4 4.6 0.5 1.5h1.6l-1.3 1 0.5 1.5-1.3-0.9-1.3 0.9 0.5-1.5-1.3-1h1.6zm24.2 0 0.5 1.5h1.6l-1.3 1 0.5 1.5-1.3-0.9-1.3 0.9 0.5-1.5-1.3-1h1.6zm-8.1-1 0.5 1.5h1.6l-1.3 1 0.5 1.5-1.3-0.9-1.3 0.9 0.5-1.5-1.3-1h1.6zm-8 0 0.5 1.5h1.6l-1.3 1 0.5 1.5-1.3-0.9-1.3 0.9 0.5-1.5-1.3-1h1.6zm-7-8.1 0.5 1.5h1.6l-1.3 1 0.5 1.5-1.3-0.9-1.4 0.9 0.5-1.5-1.3-1h1.6zm22 0 0.5 1.5h1.6l-1.3 1 0.5 1.5-1.3-0.9-1.3 0.9 0.5-1.5-1.3-1h1.6zm-29.4 0.4 0.5 1.5h1.6l-1.3 1 0.5 1.5-1.3-0.9-1.3 0.9 0.5-1.5-1.3-1h1.6zm36.8 0 0.5 1.5h1.6l-1.3 1 0.5 1.5-1.3-0.9-1.3 0.9 0.5-1.5-1.3-1h1.6zm-22.1-1.3 0.5 1.5h1.6l-1.3 1 0.5 1.5-1.3-0.9-1.3 1 0.5-1.5-1.3-1h1.6zm7.4 0 0.5 1.5h1.6l-1.3 1 0.5 1.5-1.3-0.9-1.3 0.9 0.5-1.5-1.3-1h1.6zm17.8-3.7 0.5 1.5h1.6l-1.3 1 0.5 1.5-1.3-0.9-1.3 0.9 0.5-1.5-1.3-1h1.6zm-43 0 0.5 1.5h1.6l-1.3 1 0.5 1.5-1.3-0.9-1.3 0.9 0.5-1.5-1.3-1h1.6zm35.8 0 0.5 1.5h1.6l-1.3 1 0.5 1.5-1.3-0.9-1.3 1 0.5-1.5-1.3-1h1.6zm-28.6 0 0.5 1.5h1.6l-1.3 1 0.4 1.5-1.3-0.9-1.3 0.9 0.5-1.5-1.3-1h1.6zm7.1-0.4 0.5 1.5h1.6l-1.3 1 0.4 1.5-1.3-0.9-1.3 0.9 0.5-1.5-1.3-1h1.6zm14.4 0 0.5 1.5h1.6l-1.3 1 0.5 1.5-1.3-0.9-1.3 0.9 0.5-1.5-1.3-1h1.6zm-7.2-0.4 0.5 1.5h1.6l-1.3 1 0.5 1.5-1.3-0.8-1.3 0.9 0.5-1.5-1.3-1h1.6zm17.4-4.2 0.5 1.5h1.6l-1.3 1 0.5 1.5-1.3-0.9-1.3 0.9 0.5-1.5-1.3-1h1.6zm6.1 0 0.5 1.5h1.6l-1.3 1 0.5 1.5-1.3-0.9-1.3 0.9 0.5-1.5-1.3-1h1.6zm-47 0 0.5 1.5h1.6l-1.3 1 0.5 1.5-1.3-0.9-1.3 0.9 0.5-1.5-1.3-1h1.6zm33.9 0 0.5 1.5h1.6l-1.3 1 0.5 1.5-1.3-0.9-1.3 0.9 0.5-1.5-1.3-1h1.6zm-27.8 0 0.5 1.5h1.6l-1.3 1 0.4 1.5-1.3-0.9-1.3 0.9 0.5-1.5-1.3-1h1.6zm7 0 0.5 1.5h1.6l-1.3 1 0.5 1.5-1.3-0.9-1.3 0.9 0.5-1.5-1.3-1h1.6zm13.9 0 0.5 1.5h1.6l-1.3 1 0.5 1.5-1.3-0.9-1.3 0.9 0.5-1.5-1.3-1h1.6zm-7 0 0.5 1.5h1.6l-1.3 1 0.5 1.5-1.3-0.9-1.3 0.9 0.5-1.5-1.3-1h1.6z" fill="#f3b229"/>
<polygon points="14.6 41.6 15.1 42 17.2 42.1 17.7 41.6 17.7 39.8 21.8 39.8 21.8 43.1 19.4 45.5 12.8 45.5 10.4 43 10.5 32.7 12.9 30.3 19.5 30.3 21.9 32.8 21.8 36.2 17.7 36.1 17.7 34.2 17.3 33.7 15.1 33.7 14.6 34.2" fill="#f3b229"/>
<path d="m30.4 38.5h1.9l-1-2.4zm5.1-8.2v3.4h-0.8l3.3 8.3h1v3.4h-5.8v-3.4h0.5l-0.2-0.7h-4l-0.4 0.7h0.5v3.4h-5.8v-3.4h0.9l3.4-8.3h-0.7v-3.4z" fill="#f3b229"/>
<path d="m48.2 34.2-0.5-0.5h-2v2.2h2l0.5-0.5zm0 5.6-0.5-0.5h-2v2.7h2l0.5-0.5zm4-1.2v4.4l-2.3 2.4h-9v-3.4h0.9v-8.3h-0.9v-3.4h9l2.3 2.4v3.9l-1 1z" fill="#f3b229"/>
<polygon points="58.3 39.4 58.3 41.6 58.8 42 59.9 42.1 60.4 41.6 60.4 33.7 59.1 33.7 59.1 30.3 65.6 30.3 65.5 33.7 64.6 33.7 64.6 43.1 62.2 45.5 56.6 45.5 54.1 43 54.1 39.4" fill="#f3b229"/>
<path d="m28.3 19.2 0.5 1.6h1.6l-1.3 1 0.5 1.6-1.3-0.9-1.3 0.9 0.5-1.6-1.3-1h1.6zm-6.5-0.4 0.5 1.6h1.6l-1.3 1 0.5 1.6-1.4-1-1.3 0.9 0.5-1.6-1.3-1h1.6zm-13 0 0.5 1.6h1.6l-1.3 1 0.4 1.6-1.3-1-1.3 0.9 0.5-1.6-1.3-1h1.6zm6.5 0 0.5 1.6h1.6l-1.3 1 0.5 1.6-1.3-1-1.3 0.9 0.5-1.6-1.3-1h1.6zm19.5 0.4 0.5 1.6h1.6l-1.3 1 0.5 1.6-1.3-0.9-1.3 0.9 0.5-1.6-1.3-1h1.6zm6.4 0 0.5 1.6h1.6l-1.3 1 0.5 1.6-1.3-0.9-1.3 0.9 0.5-1.6-1.3-1h1.6zm6.5 0 0.5 1.6h1.6l-1.3 1 0.5 1.6-1.3-0.9-1.3 0.9 0.5-1.6-1.3-1h1.6zm6.5-0.4 0.5 1.6h1.6l-1.3 1 0.5 1.6-1.2-1-1.3 0.9 0.5-1.6-1.3-1h1.6zm13 0 0.5 1.6h1.6l-1.3 1 0.5 1.6-1.3-1-1.3 1 0.4-1.6-1.3-1h1.6zm-6.5 0 0.5 1.6h1.6l-1.3 1 0.5 1.6-1.3-1-1.3 0.9 0.5-1.6-1.3-1h1.6zm-40.3-10.3 0.5 1.6h1.6l-1.3 1 0.5 1.6-1.3-0.9-1.3 0.9 0.5-1.6-1.3-1h1.6zm35.2 0 0.5 1.6h1.6l-1.3 1 0.5 1.6-1.3-0.9-1.3 0.9 0.5-1.6-1.3-1h1.6zm-42 5 0.5 1.6h1.6l-1.3 1 0.5 1.6-1.3-0.9-1.3 0.9 0.5-1.6-1.3-1h1.6zm20.9 0.8 0.5 1.5h1.6l-1.3 1 0.5 1.6-1.3-0.9-1.3 0.9 0.5-1.6-1.3-1h1.6zm7 0 0.5 1.5h1.6l-1.3 1 0.5 1.6-1.3-0.9-1.3 0.9 0.5-1.6-1.3-1h1.6zm-20.9-0.4 0.5 1.6h1.6l-1.3 1 0.5 1.6-1.3-0.9-1.3 0.8 0.5-1.6-1.3-1h1.6zm6.9 0 0.5 1.6h1.6l-1.3 1 0.5 1.6-1.3-0.9-1.3 0.8 0.5-1.6-1.3-1h1.6zm34.9-0.4 0.5 1.6h1.6l-1.3 1 0.5 1.6-1.3-0.9-1.3 0.9 0.5-1.6-1.3-1h1.6zm-13.9 0.4 0.5 1.5h1.6l-1.3 1 0.5 1.6-1.3-0.9-1.4 0.9 0.5-1.6-1.3-1h1.6zm6.9 0 0.5 1.6h1.6l-1.3 1 0.5 1.6-1.3-0.9-1.3 0.8 0.5-1.6-1.3-1h1.6zm-26.8 10.4 0.5 1.5h1.6l-1.3 1 0.5 1.6-1.3-0.9-1.3 0.9 0.5-1.6-1.3-1h1.6zm-6.3 0 0.5 1.6h1.6l-1.3 1 0.5 1.6-1.3-0.9-1.3 0.8 0.5-1.6-1.3-1h1.6zm-6.3 0 0.5 1.6h1.6l-1.3 1 0.5 1.6-1.3-1-1.3 0.9 0.5-1.6-1.3-1h1.6zm-6.3 0 0.5 1.6h1.6l-1.3 1 0.4 1.6-1.3-0.9-1.3 0.9 0.5-1.6-1.3-1h1.6zm25.2 0 0.5 1.6h1.6l-1.3 1 0.5 1.6-1.3-0.9-1.3 0.9 0.5-1.6-1.3-1h1.6zm6.2 0 0.5 1.6h1.6l-1.3 1 0.5 1.6-1.3-0.9-1.3 0.9 0.5-1.6-1.3-1h1.6zm12.6 0 0.5 1.5h1.6l-1.3 1 0.5 1.6-1.3-0.9-1.3 0.9 0.5-1.6-1.3-1h1.6zm6.3 0 0.5 1.6h1.6l-1.3 1 0.5 1.6-1.3-1-1.3 0.9 0.5-1.6-1.3-1h1.6zm6.3 0 0.5 1.6h1.6l-1.3 1 0.5 1.6-1.3-0.9-1.3 0.8 0.4-1.6-1.3-1h1.6zm-18.9 0 0.5 1.6h1.6l-1.3 1 0.5 1.6-1.3-0.9-1.3 0.9 0.5-1.6-1.3-1h1.6z" fill="#f3b229"/>
</g>
</g>
</svg>
