<?xml version="1.0" encoding="utf-8"?>
<!-- Generator: Adobe Illustrator 21.0.0, SVG Export Plug-In . SVG Version: 6.00 Build 0)  -->
<svg version="1.1" xmlns="http://www.w3.org/2000/svg" xmlns:xlink="http://www.w3.org/1999/xlink" x="0px" y="0px"
	 viewBox="0 0 4000 4000" style="enable-background:new 0 0 4000 4000;" xml:space="preserve">
<style type="text/css">
	.st0{display:none;}
	.st1{display:none;fill:#FFFFFF;}
	.st2{fill:#141414;}
	.st3{fill:#BC0000;}
	.st4{fill:#FFFFFF;}
</style>
<g id="Capa_1" class="st0">
</g>
<g id="Capa_2">
	<rect class="st1" width="4000" height="4000"/>
	<g>
		<g>
			<g>
				<path class="st2" d="M3503,851.5c0,0-502.7-45.6-775.6-137s-729.4-367.2-729.4-367.2S1541.4,623,1268.5,714.4
					s-775.6,137-775.6,137s-87.2,388.9-16,823.4c31.4,191.4,63.9,362.2,154.9,588.3c89.4,222.4,215.6,467.5,351.1,616.3
					c501.8,551.4,1015.1,773.2,1015.1,773.2S2511.3,3431,3013,2879.5c135.5-148.9,261.7-394,351.1-616.3
					c90.9-226.2,123.5-396.9,154.9-588.3C3590.2,1240.4,3503,851.5,3503,851.5z M1317.6,3160.7c0,47.6-20.3-223.2-85.9-92.9
					l-106.9-130.5c-28.1,0-257-321.4-257-346.6V868.4c0-25.2,48.1-29.8,76.2-29.8l322.7-96.8c28.1,0,50.8,20.5,50.8,45.7V3160.7z
					 M2219.5,3428.8c0,54.7-44.3,99-99,99h-285.1c-28.9,0-52.4-23.5-52.4-52.4V527.4c0-28.9,23.5-52.4,52.4-52.4H2167
					c28.9,0,52.4,23.5,52.4,52.4V3428.8z M3128.1,2552c0,58.1-176.8,351.2-228.2,351.2l-178,172.7c-27.3,0-30.5,92.1-30.5,61.4
					V831.2c0-30.7,22.1-55.7,49.4-55.7l308.2,64.8c27.3,0,79.1,13,79.1,43.8V2552z"/>
			</g>
			<path class="st3" d="M2167,475h-331.7c-28.9,0-52.4,23.5-52.4,52.4v2947.9c0,28.9,23.5,52.4,52.4,52.4h285.1
				c54.7,0,99-44.3,99-99V527.4C2219.5,498.5,2196,475,2167,475z"/>
			<path class="st3" d="M3048.9,840.4l-308.2-64.8c-27.3,0-49.4,24.9-49.4,55.7v2306.1c0,30.7,3.2-61.4,30.5-61.4l178-172.7
				c51.5,0,228.2-293.1,228.2-351.2V884.1C3128.1,853.4,3076.2,840.4,3048.9,840.4z"/>
			<path class="st3" d="M1266.7,741.9L944,838.7c-28.1,0-76.2,4.5-76.2,29.8v1722.3c0,25.2,228.9,346.6,257,346.6l106.9,130.5
				c65.6-130.3,85.9,140.6,85.9,92.9V787.5C1317.6,762.3,1294.8,741.9,1266.7,741.9z"/>
		</g>
		<g>
			<path class="st2" d="M1998.9,481.7c48.3,28.2,121.9,70.4,207.2,116.6c202.6,109.8,365.9,185.8,485.4,225.9
				c119.8,40.1,291.5,76.3,510.5,107.6c80.1,11.4,151.3,20,203.3,25.8c20,130.9,48.5,404.4,0.3,698.5
				c-16.5,100.8-31.9,185.6-53.2,272.1c-24.5,99-54.6,191.7-94.8,291.8c-46.3,115.1-98.9,226.7-152.1,322.8
				c-60.2,108.8-119.9,195.8-177.2,258.8c-109.8,120.7-229.4,234.9-355.2,339.5c-100.9,83.8-206.1,161.7-312.7,231.3
				c-116.5,76.2-209.5,126-261.6,152.1c-52.1-26.1-145-75.9-261.6-152.1c-106.6-69.7-211.8-147.5-312.7-231.3
				c-125.9-104.5-245.4-218.8-355.2-339.5c-57.3-63-116.9-150.1-177.2-258.8c-53.2-96.1-105.8-207.7-152.1-322.8
				c-40.2-100-70.3-192.7-94.8-291.8c-21.4-86.5-36.7-171.3-53.2-272.1c-15.2-92.8-23.9-191.2-26-292.6c-1.6-81.8,1.1-165.6,8-249.1
				c5.3-63.1,12.2-116.7,18.3-156.9c52-5.8,123.2-14.4,203.3-25.8c219-31.3,390.7-67.5,510.5-107.6c119.5-40,282.8-116,485.4-225.9
				C1877,552,1950.6,509.8,1998.9,481.7 M1998.9,347.3c0,0-456.6,275.8-729.4,367.2c-272.9,91.4-775.6,137-775.6,137
				s-87.2,388.9-16,823.4c31.4,191.4,63.9,362.2,154.9,588.3c89.4,222.4,215.6,467.5,351.1,616.3
				c501.8,551.4,1015.1,773.2,1015.1,773.2S2512.2,3431,3014,2879.5c135.5-148.9,261.7-394,351.1-616.3
				c90.9-226.2,123.5-396.9,154.9-588.3c71.2-434.5-16-823.4-16-823.4s-502.7-45.6-775.6-137C2455.4,623,1998.9,347.3,1998.9,347.3
				L1998.9,347.3z"/>
		</g>
		<g>
			<g>
				<path class="st4" d="M1369.2,1911.3l0.9,8.3h-121.5l-1.8-8.3c-15-70.5-60.7-112-141.7-112c-97.7,0-163.7,78.8-163.7,209
					c0,142.6,69.5,215.6,162,215.6c79.2,0,125-44.8,140.8-116.1l1.8-8.3h120.6l-0.9,8.3c-13.2,121.9-111.8,201.5-267.6,201.5
					c-169,0-285.2-112-285.2-294.4c0-187.4,125.9-301,294-301C1271.5,1713.9,1356.9,1798.5,1369.2,1911.3z"/>
			</g>
			<g>
				<path class="st4" d="M1900.3,1725.7l-61.6,174.1h-131.2l222.2-577.4h154.4l217.7,577.4H2168l-60.7-174.1H1900.3z M1931.5,1634.5
					h144.6l-71.4-213.4L1931.5,1634.5z"/>
			</g>
			<g>
				<path class="st4" d="M3180,1231.6c0,109.7-80.1,171-173.1,181.4c-31.6,3.5-55.9,4.3-93.1,4.3h-94v224.6h-128.5v-596h222.5
					c37.2,0,61.4,0.9,93.1,4.3C3104.6,1060.6,3180,1122,3180,1231.6z M3045,1231.6c0-56.1-31.6-82.9-76.3-89
					c-14-1.7-33.5-2.6-56.8-2.6h-92.2v183.1h92.2c23.3,0,42.8-0.9,56.8-2.6C3013.3,1314.6,3045,1287.8,3045,1231.6z"/>
			</g>
		</g>
	</g>
</g>
</svg>
