<?xml version="1.0" encoding="UTF-8" standalone="no"?>
<svg
   xmlns:dc="http://purl.org/dc/elements/1.1/"
   xmlns:cc="http://creativecommons.org/ns#"
   xmlns:rdf="http://www.w3.org/1999/02/22-rdf-syntax-ns#"
   xmlns:svg="http://www.w3.org/2000/svg"
   xmlns="http://www.w3.org/2000/svg"
   xmlns:sodipodi="http://sodipodi.sourceforge.net/DTD/sodipodi-0.dtd"
   xmlns:inkscape="http://www.inkscape.org/namespaces/inkscape"
   width="700"
   height="700"
   viewBox="0 0 700.00383 699.99298"
   version="1.1"
   id="svg44"
   sodipodi:docname="banfield-logo-escudo.svg"
   inkscape:export-filename="C:\Users\alex\sites\banfield-logo-0.png"
   inkscape:export-xdpi="561.73999"
   inkscape:export-ydpi="561.73999"
   inkscape:version="0.92.1 r15371">
  <metadata
     id="metadata50">
    <rdf:RDF>
      <cc:Work
         rdf:about="">
        <dc:format>image/svg+xml</dc:format>
        <dc:type
           rdf:resource="http://purl.org/dc/dcmitype/StillImage" />
        <dc:title>CA Banfield</dc:title>
      </cc:Work>
    </rdf:RDF>
  </metadata>
  <defs
     id="defs48" />
  <sodipodi:namedview
     pagecolor="#ffffff"
     bordercolor="#666666"
     borderopacity="1"
     objecttolerance="10"
     gridtolerance="10"
     guidetolerance="10"
     inkscape:pageopacity="0"
     inkscape:pageshadow="2"
     inkscape:window-width="1600"
     inkscape:window-height="838"
     id="namedview46"
     showgrid="false"
     inkscape:zoom="0.55501777"
     inkscape:cx="121.06382"
     inkscape:cy="395.33858"
     inkscape:window-x="-8"
     inkscape:window-y="-8"
     inkscape:window-maximized="1"
     inkscape:current-layer="g42" />
  <title
     id="title2">CA Banfield</title>
  <g
     id="g12"
     style="fill:#b4975a"
     transform="matrix(1.8748414,0,0,1.8748414,177.76117,68.772155)"
     inkscape:export-filename="C:\Users\alex\sites\banfield-logo-5.png"
     inkscape:export-xdpi="112.08742"
     inkscape:export-ydpi="112.08742">
    <polygon
       points="49.703,12.275 61.56,10.928 66.515,0 71.447,10.928 83.3,12.219 74.495,20.291 76.84,32.068 66.515,26.051 55.818,31.876 58.504,20.291 "
       id="polygon4" />
    <polygon
       points="102.28,12.275 114.13,10.928 119.1,0 124.03,10.928 135.88,12.219 127.06,20.291 129.42,32.068 119.1,26.051 108.4,31.876 111.07,20.291 "
       id="polygon6" />
    <path
       d="m 183.18,55.242 -3.876,4.592 c -5.592,6.612 -10.749,9.807 -15.813,9.807 -5.595,0 -11.748,-3.855 -18.826,-11.79 l -1.506,-1.706 -1.662,1.59 c -8.214,7.885 -15.91,11.724 -23.523,11.724 -7.595,0 -15.393,-3.839 -23.871,-11.75 l -1.502,-1.391 -1.502,1.398 C 82.634,65.62 74.724,69.459 66.964,69.459 59.178,69.459 51.389,65.62 43.15,57.735 l -1.637,-1.59 -1.517,1.706 c -7.075,7.934 -13.386,11.79 -19.291,11.79 -5.349,0 -10.666,-3.195 -16.27,-9.807 l -3.86,-4.592 v 6.011 l -0.071,156.71 v 0.997 l 0.745,0.653 89.901,79.097 1.46,1.288 1.457,-1.288 88.43,-79.114 0.738,-0.647 v -0.985 l -0.057,-156.71 v -6.008 z m -40.16,4.077 c 7.592,8.522 14.209,12.537 20.463,12.537 5.981,0 11.633,-3.678 17.479,-10.602 l 0.071,156.71 -88.44,79.098 -89.888,-79.1 0.064,-156.71 c 5.854,6.924 11.733,10.602 17.936,10.602 6.513,0 13.358,-4.015 20.931,-12.537 8.813,8.445 17.176,12.35 25.328,12.35 8.67,0 17.119,-4.398 25.636,-12.35 8.535,7.951 16.838,12.35 25.373,12.35 8.02,0 16.23,-3.904 25.05,-12.349"
       id="path8"
       inkscape:connector-curvature="0"
       style="fill:none" />
    <path
       d="m 183.18,55.242 -3.876,4.592 c -5.592,6.612 -10.749,9.807 -15.813,9.807 -5.595,0 -11.748,-3.855 -18.826,-11.79 l -1.506,-1.706 -1.662,1.59 c -8.214,7.885 -15.91,11.724 -23.523,11.724 -7.595,0 -15.393,-3.839 -23.871,-11.75 l -1.502,-1.391 -1.502,1.398 C 82.634,65.62 74.724,69.459 66.964,69.459 59.178,69.459 51.389,65.62 43.15,57.735 l -1.637,-1.59 -1.517,1.706 c -7.075,7.934 -13.386,11.79 -19.291,11.79 -5.349,0 -10.666,-3.195 -16.27,-9.807 l -3.86,-4.592 v 6.011 l -0.071,156.71 v 0.997 l 0.745,0.653 89.901,79.097 1.46,1.288 1.457,-1.288 88.43,-79.114 0.738,-0.647 v -0.985 l -0.057,-156.71 v -6.008 z m -40.16,4.077 c 7.592,8.522 14.209,12.537 20.463,12.537 5.981,0 11.633,-3.678 17.479,-10.602 l 0.071,156.71 -88.44,79.098 -89.888,-79.1 0.064,-156.71 c 5.854,6.924 11.733,10.602 17.936,10.602 6.513,0 13.358,-4.015 20.931,-12.537 8.813,8.445 17.176,12.35 25.328,12.35 8.67,0 17.119,-4.398 25.636,-12.35 8.535,7.951 16.838,12.35 25.373,12.35 8.02,0 16.23,-3.904 25.05,-12.349"
       id="path10"
       inkscape:connector-curvature="0" />
  </g>
  <path
     d="m 351.36399,625.71255 -168.537,-148.29996 0.1125,-293.80641 c 22.4681,26.58713 45.09931,27.57892 72.87508,-3.62406 34.09024,32.71973 64.56954,28.89693 95.54942,0 31.01363,28.89693 60.46176,32.71973 94.5445,0 27.80578,31.20298 48.66526,30.20932 71.14086,3.62406 l 0.12562,293.80641 -165.79973,148.29996 z"
     id="path14"
     inkscape:connector-curvature="0"
     style="fill:#ffffff;stroke-width:1.87484145"
     inkscape:export-filename="C:\Users\alex\sites\banfield-logo-5.png"
     inkscape:export-xdpi="112.08742"
     inkscape:export-ydpi="112.08742" />
  <path
     d="m 268.19978,374.84001 v 5.9245 c -2.1542,1.15115 -4.36651,2.00421 -6.58632,2.59478 -2.23856,0.5962 -4.45838,0.88493 -6.66319,0.88493 -2.10732,0 -4.07403,-0.28685 -5.99574,-0.82306 -1.90484,-0.5887 -3.70281,-1.39863 -5.43517,-2.48979 -2.73727,-1.78297 -4.83709,-4.0759 -6.36133,-6.83755 -1.51113,-2.78788 -2.29669,-5.77826 -2.29669,-9.04236 0,-2.48979 0.53996,-4.89146 1.50175,-7.19939 1.01804,-2.33605 2.4523,-4.35525 4.29714,-6.11948 1.93109,-1.82422 4.1584,-3.2491 6.57319,-4.14152 2.4448,-0.93368 5.13144,-1.39489 8.11619,-1.39489 2.05108,0 4.08716,0.23248 6.16448,0.70494 2.00796,0.47434 4.1284,1.2224 6.37634,2.24981 v 5.7164 c -2.34543,-1.27302 -4.56524,-2.22357 -6.5882,-2.82727 -2.0642,-0.60182 -4.02903,-0.89804 -5.95449,-0.89804 -4.33276,0 -7.85559,1.33863 -10.65848,4.02716 -2.83851,2.68102 -4.19214,6.00886 -4.19214,10.0304 0,3.97654 1.35551,7.32688 4.10778,9.96665 2.77289,2.71665 6.24884,4.02341 10.42036,4.02341 2.12795,0 4.30464,-0.35059 6.48696,-1.04991 2.19544,-0.76868 4.4415,-1.85609 6.68756,-3.31847"
     id="path16"
     inkscape:connector-curvature="0"
     style="stroke-width:1.87484145;stroke:#000000"
     inkscape:export-filename="C:\Users\alex\sites\banfield-logo-5.png"
     inkscape:export-xdpi="112.08742"
     inkscape:export-ydpi="112.08742" />
  <path
     d="m 345.43012,367.99684 h 11.48715 l -5.80638,-13.28513 -5.68077,13.29263 z m -12.09273,15.56118 15.9174,-36.79563 h 3.82093 l 16.14051,36.79563 h -5.43329 l -4.70398,-10.84033 h -15.7018 l -4.67585,10.84033 h -5.36767 z"
     id="path18"
     inkscape:connector-curvature="0"
     style="stroke-width:1.87484145;stroke:#000000"
     inkscape:export-filename="C:\Users\alex\sites\banfield-logo-5.png"
     inkscape:export-xdpi="112.08742"
     inkscape:export-ydpi="112.08742" />
  <path
     d="m 443.40745,367.39689 v 11.39904 h 6.97254 c 2.58353,0 4.45837,-0.46871 5.65265,-1.36864 1.18677,-0.89805 1.76235,-2.3323 1.76235,-4.23339 0,-2.0042 -0.68807,-3.48533 -2.01546,-4.434 -1.29739,-0.92242 -3.37846,-1.36301 -6.24884,-1.36301 h -6.11199 z m 0,-4.83709 h 3.53971 c 2.68852,0 4.67585,-0.48746 5.97512,-1.44363 1.31238,-0.95992 1.94421,-2.44667 1.94421,-4.42275 0,-1.81297 -0.50621,-3.11411 -1.5355,-3.94654 -0.98992,-0.82681 -2.67727,-1.2299 -4.90084,-1.2299 h -5.02082 v 11.05969 z m -5.19331,20.99822 v -36.79563 h 10.74847 c 3.70094,0 6.47383,0.84555 8.46303,2.50291 1.98734,1.67611 3.00538,4.03091 3.00538,7.08877 0,1.90672 -0.44809,3.47784 -1.36301,4.75273 -0.86431,1.25614 -2.26856,2.24231 -4.05904,2.90413 2.66228,0.65244 4.7471,1.78297 6.18698,3.44408 1.43988,1.68736 2.22731,3.71031 2.22731,6.11198 0,3.011 -1.14365,5.46892 -3.36346,7.27439 -2.24044,1.80547 -5.24581,2.71664 -9.09486,2.71664 h -12.73955 z"
     id="path20"
     inkscape:connector-curvature="0"
     style="stroke-width:1.87484145;stroke:#000000"
     inkscape:export-filename="C:\Users\alex\sites\banfield-logo-5.png"
     inkscape:export-xdpi="112.08742"
     inkscape:export-ydpi="112.08742" />
  <g
     id="g42"
     style="fill:#b4975a"
     transform="matrix(1.8748414,0,0,1.8748414,177.76117,68.772155)">
    <path
       d="M 25.873,70.680287 V 238.54797 l 0.958,0.86377 V 70.350229 c -0.329,0.127408 -0.633,0.230739 -0.958,0.342096"
       id="path22"
       inkscape:connector-curvature="0"
       style="stroke-width:1.00160539"
       inkscape:export-filename="C:\Users\alex\sites\banfield-logo-5.png"
       inkscape:export-xdpi="112.08742"
       inkscape:export-ydpi="112.08742" />
    <path
       d="M 2.766,61.151 2.702,218.04 25.869,238.44 V 70.93 C 17.708,73.5159 10.211,69.98895 2.766,61.1489"
       id="path24"
       inkscape:connector-curvature="0"
       style="fill:#03953f"
       inkscape:export-filename="C:\Users\alex\sites\banfield-logo-5.png"
       inkscape:export-xdpi="112.08742"
       inkscape:export-ydpi="112.08742" />
    <path
       d="m 52.767,67.342 v 195.08 l 27.141,23.983 V 68.025 c -8.832,4.4011 -17.779,4.4651 -27.141,-0.67888"
       id="path26"
       inkscape:connector-curvature="0"
       style="fill:#03953f"
       inkscape:export-filename="C:\Users\alex\sites\banfield-logo-5.png"
       inkscape:export-xdpi="112.08742"
       inkscape:export-ydpi="112.08742" />
    <path
       d="M 52.767,67.562318 C 52.437,67.371141 52.1,67.205989 51.793,67.011809 V 261.17121 l 0.974,0.85679 V 67.558314 Z"
       id="path28"
       inkscape:connector-curvature="0"
       style="stroke-width:1.00046229"
       inkscape:export-filename="C:\Users\alex\sites\banfield-logo-5.png"
       inkscape:export-xdpi="112.08742"
       inkscape:export-ydpi="112.08742" />
    <path
       d="M 79.907,68.416641 V 286.1827 l 0.996,0.86609 V 67.911 c -0.337,0.165209 -0.677,0.349443 -0.996,0.495628"
       id="path30"
       inkscape:connector-curvature="0"
       style="stroke-width:1.00063443"
       inkscape:export-filename="C:\Users\alex\sites\banfield-logo-5.png"
       inkscape:export-xdpi="112.08742"
       inkscape:export-ydpi="112.08742" />
    <path
       d="m 104.86,68.202591 c -0.326,-0.183056 -0.648,-0.352108 -0.963,-0.528162 V 286.972 l 0.963,-0.85926 V 68.205592 Z"
       id="path32"
       inkscape:connector-curvature="0"
       style="stroke-width:1.00015414"
       inkscape:export-filename="C:\Users\alex\sites\banfield-logo-5.png"
       inkscape:export-xdpi="112.08742"
       inkscape:export-ydpi="112.08742" />
    <path
       d="M 132,67.405073 V 261.99274 l 0.993,-0.84717 V 66.868701 c -0.31,0.184472 -0.67,0.36794 -0.99,0.545395"
       id="path34"
       inkscape:connector-curvature="0"
       style="stroke-width:1.00128126"
       inkscape:export-filename="C:\Users\alex\sites\banfield-logo-5.png"
       inkscape:export-xdpi="112.08742"
       inkscape:export-ydpi="112.08742" />
    <path
       d="m 104.86,67.972 v 218.44 l 27.147,-24.383 V 67.399 c -9.4,5.2654 -18.26,5.115 -27.15,0.56956"
       id="path36"
       inkscape:connector-curvature="0"
       style="fill:#03953f"
       inkscape:export-filename="C:\Users\alex\sites\banfield-logo-5.png"
       inkscape:export-xdpi="112.08742"
       inkscape:export-ydpi="112.08742" />
    <path
       d="m 158.2,70.715757 c -0.345,-0.09923 -0.663,-0.229548 -0.993,-0.367878 V 239.48136 l 0.993,-0.88411 V 70.716759 Z"
       id="path38"
       inkscape:connector-curvature="0"
       style="stroke-width:1.00119495"
       inkscape:export-filename="C:\Users\alex\sites\banfield-logo-5.png"
       inkscape:export-xdpi="112.08742"
       inkscape:export-ydpi="112.08742" />
    <path
       d="M 181.04,218.1 180.96,60.95 c -7.535,8.9572 -14.759,12.484 -22.77,9.6802 v 167.95 l 22.85,-20.478 z"
       id="path40"
       inkscape:connector-curvature="0"
       style="fill:#03953f"
       inkscape:export-filename="C:\Users\alex\sites\banfield-logo-5.png"
       inkscape:export-xdpi="112.08742"
       inkscape:export-ydpi="112.08742" />
  </g>
</svg>
