<?xml version="1.0" encoding="UTF-8" standalone="no"?>
<!-- Generator: Adobe Illustrator 16.0.0, SVG Export Plug-In . SVG Version: 6.00 Build 0)  -->

<svg
   xmlns:dc="http://purl.org/dc/elements/1.1/"
   xmlns:cc="http://creativecommons.org/ns#"
   xmlns:rdf="http://www.w3.org/1999/02/22-rdf-syntax-ns#"
   xmlns:svg="http://www.w3.org/2000/svg"
   xmlns="http://www.w3.org/2000/svg"
   xmlns:sodipodi="http://sodipodi.sourceforge.net/DTD/sodipodi-0.dtd"
   xmlns:inkscape="http://www.inkscape.org/namespaces/inkscape"
   version="1.1"
   id="Capa_2"
   x="0px"
   y="0px"
   width="700"
   height="700"
   viewBox="0 0 700 700"
   enable-background="new 0 0 612 679"
   xml:space="preserve"
   sodipodi:docname="c-a-colon-logo.svg"
   inkscape:export-filename="C:\Users\alex\sites\c-a-colon-logo-0.png"
   inkscape:export-xdpi="561.73712"
   inkscape:export-ydpi="561.73712"
   inkscape:version="0.92.1 r15371"><metadata
     id="metadata39"><rdf:RDF><cc:Work
         rdf:about=""><dc:format>image/svg+xml</dc:format><dc:type
           rdf:resource="http://purl.org/dc/dcmitype/StillImage" /><dc:title></dc:title></cc:Work></rdf:RDF></metadata><defs
     id="defs37" /><sodipodi:namedview
     pagecolor="#ffffff"
     bordercolor="#666666"
     borderopacity="1"
     objecttolerance="10"
     gridtolerance="10"
     guidetolerance="10"
     inkscape:pageopacity="0"
     inkscape:pageshadow="2"
     inkscape:window-width="1600"
     inkscape:window-height="838"
     id="namedview35"
     showgrid="false"
     inkscape:zoom="0.34756996"
     inkscape:cx="306"
     inkscape:cy="339.5"
     inkscape:window-x="-8"
     inkscape:window-y="-8"
     inkscape:window-maximized="1"
     inkscape:current-layer="Capa_2" /><g
     id="g32"
     transform="matrix(0.73482155,0,0,0.73482155,125.09023,100.66843)"
     inkscape:export-filename="C:\Users\alex\sites\c-a-colon-logo-4.png"
     inkscape:export-xdpi="87.572365"
     inkscape:export-ydpi="87.572365"><path
       d="m 7.706,142.141 v 38.364 c 0.117,0.185 2.098,41.245 2.957,46.1 0.563,3.187 0.74,8.079 1.103,11.162 0.441,3.743 0.84,7.323 1.279,10.985 0.851,7.106 2.551,14.766 3.165,21.68 0.592,6.666 2.952,14.018 3.799,20.73 0.647,5.131 3.018,14.87 4.429,20.101 1.676,6.21 3.65,13.167 5.044,19.485 1.37,6.206 3.97,12.86 5.718,19.126 1.622,5.813 4.047,12.898 6.21,18.32 2.287,5.73 4.075,12.231 6.721,17.809 1.286,2.708 2.31,5.921 3.512,8.753 1.209,2.851 2.654,5.697 3.757,8.509 1.902,4.848 5.307,12.784 7.802,17.044 2.771,4.729 5.752,11.266 8.256,16.273 2.521,5.041 5.917,11.3 8.852,15.994 6.513,10.419 12.272,20.223 19,30.377 6.586,9.939 13.36,19.131 20.508,28.555 7.247,9.551 14.848,17.89 22.443,26.936 7.333,8.735 15.542,17.425 23.595,25.468 8.436,8.426 16.948,15.738 25.487,23.893 7.96,7.604 17.746,15.76 26.437,22.629 8.831,6.983 18.761,15.063 28.117,21.264 4.89,3.24 9.508,6.858 14.409,10.124 4.983,3.321 9.796,6.529 14.913,9.936 5.002,3.329 10.096,6.269 14.971,9.562 4.163,2.813 12.087,6.543 15.414,9.434 h 0.629 c 1.929,-1.677 12.438,-7.891 15.202,-9.331 4.87,-2.538 10.301,-6.473 15.064,-9.468 9.324,-5.863 20.443,-13.331 29.102,-19.965 9.35,-7.164 18.58,-14.002 27.957,-21.109 9.266,-7.024 17.634,-15.447 26.606,-22.457 3.854,-3.011 9.176,-8.235 12.756,-11.777 4.137,-4.095 8.463,-7.821 12.588,-11.944 2.964,-2.963 9.902,-9.567 12.031,-12.501 0.979,-1.347 4.521,-5 5.899,-6.367 2.096,-2.078 3.728,-4.33 5.823,-6.442 7.938,-7.995 14.902,-18.129 22.327,-26.735 3.652,-4.232 7.074,-9.459 10.534,-13.999 3.508,-4.605 6.963,-9.598 10.151,-14.379 13.305,-19.951 25.062,-39.722 36.175,-61.949 2.745,-5.489 5.073,-11.137 7.808,-16.724 2.419,-4.939 5.521,-11.888 7.392,-17.141 2.14,-6.01 4.564,-11.807 6.826,-17.703 2.267,-5.906 4.048,-12.387 6.247,-18.284 4.242,-11.372 7.658,-25.839 10.797,-38.263 3.328,-13.175 5.762,-26.473 8.299,-40.761 0.991,-5.585 3.109,-15.873 3.287,-21.242 0.114,-3.479 0.811,-7.479 1.283,-10.98 0.458,-3.387 0.65,-7.744 1.156,-11.108 0.685,-4.555 2.798,-45.684 2.899,-45.843 v -35.535 l -0.944,-22.001 0.36,-0.049 -0.72,-0.868 0.045,-3.497 L 488.996,7.865 h -0.314 c -4.104,3.565 -13.413,10.088 -18.237,12.901 -6.164,3.594 -12.425,8.127 -18.873,11.951 -12.46,7.387 -26.855,15.25 -41.088,20.875 -7.702,3.044 -14.375,5.75 -22.587,8.553 -7.031,2.4 -16.307,5.458 -24.028,6.797 -3.645,0.632 -8.74,1.944 -12.675,2.737 -4.403,0.888 -8.719,1.253 -13.38,2.034 -8.011,1.342 -19.823,2.075 -28.751,2.075 h -4.719 c -8.954,0 -21.096,-0.663 -29.127,-2.014 -8.745,-1.47 -18.458,-2.456 -26.421,-4.72 -8.578,-2.439 -16.013,-4.275 -24.152,-6.988 -7.385,-2.462 -16.029,-5.241 -22.7,-8.44 -7.271,-3.488 -14.199,-6.403 -21.226,-9.913 -6.904,-3.449 -13.642,-7.144 -20.142,-10.997 -5.638,-3.342 -35.062,-21.629 -37.424,-24.852 h -0.629 L 8.593,122.273 Z"
       id="path2"
       inkscape:connector-curvature="0"
       style="clip-rule:evenodd;fill:#332d26;fill-rule:evenodd" /><path
       d="m 15.808,149.057 0.077,25.474 c 0,3.973 0.333,8.23 0.318,11.631 -0.021,4.479 0.631,8.102 0.633,11.631 0.004,6.04 0.449,17.329 1.439,22.774 0.4,2.201 0.942,8.944 1.07,10.879 0.231,3.468 0.563,7.771 1.132,11.133 0.464,2.747 1.353,8.067 1.388,10.562 0.044,3.191 1.192,7.44 1.578,10.687 0.852,7.166 2.38,13.687 3.484,20.731 0.992,6.335 3.445,13.804 4.348,19.867 0.976,6.555 3.332,13.262 4.81,19.405 1.264,5.249 3.466,14.247 5.407,19.124 2.335,5.867 3.635,12.299 5.972,18.243 2.323,5.91 4.359,11.829 6.521,17.694 4.326,11.734 9.762,22.931 14.747,34 9.639,21.396 22.5,43.334 35.041,62.14 6.605,9.905 12.974,18.998 20.093,28.342 6.454,8.47 14.487,19.239 21.69,26.744 7.969,8.3 15.058,16.926 23.285,25.149 3.951,3.95 8.023,8.432 12.106,12.111 4.209,3.793 8.796,7.806 12.744,11.789 7.912,7.982 17.794,14.771 26.112,22.323 8.197,7.443 18.567,14.377 27.515,21.236 9.041,6.932 18.985,13.446 28.586,19.851 9.117,6.081 20.43,13.675 30.01,18.742 V 216.668 h -4.089 c -22.894,0 -47.414,-1.691 -67.239,-5.11 -5.006,-0.863 -10.542,-1.424 -15.517,-2.413 -4.782,-0.95 -10.76,-2.303 -15.357,-2.888 -3.125,-0.396 -28.046,-6.368 -29.288,-7.199 -4.472,0 -37.791,-11.16 -43.093,-13.211 -13.932,-5.388 -26.864,-10.189 -40.369,-15.933 -13.165,-5.6 -25.599,-11.904 -38.171,-18.131 -6.219,-3.08 -12.38,-6.498 -18.458,-9.85 -2.914,-1.607 -16.338,-9.752 -18.065,-10.169 z"
       id="path4"
       inkscape:connector-curvature="0"
       style="clip-rule:evenodd;fill:#e1171d;fill-rule:evenodd" /><path
       d="m 16.75,125.396 c 2.132,2.879 52.25,28.896 59.431,31.94 10.706,4.54 20.632,9.436 31.743,13.865 11.121,4.434 21.563,8.393 33.278,12.33 23.63,7.94 45.707,13.709 72.156,19.062 23.608,4.777 54.395,8.729 82.493,8.729 h 12.582 c 60.789,0 113.617,-11.599 159.369,-26.847 12.058,-4.02 22.836,-8.006 34.134,-12.418 5.546,-2.166 10.9,-4.516 16.418,-6.857 5.323,-2.258 10.927,-5.331 15.982,-7.293 6.991,-2.713 58.66,-29.691 60.747,-32.51 L 488.052,18.557 c -2.633,1.392 -6.023,4.226 -8.745,6.038 -3.132,2.085 -5.743,4.02 -9.06,6.037 -6.289,3.826 -12.119,8.125 -18.685,11.51 -6.431,3.314 -12.671,7.119 -19.397,10.483 -6.922,3.461 -13.773,6.048 -20.767,9.429 -4.113,1.988 -17.354,7.203 -21.785,8.096 -3.191,0.642 -7.867,2.511 -11.534,3.564 -3.974,1.141 -7.889,2.236 -12.009,3.09 -16.332,3.387 -33.284,6.847 -53.233,6.847 h -11.324 c -38.846,0 -71.965,-10.458 -99.989,-21.427 C 172.418,50.83 148.036,34.793 123.704,18.479 Z"
       id="path6"
       inkscape:connector-curvature="0"
       style="clip-rule:evenodd;fill:#ffffff;fill-rule:evenodd" /><path
       d="m 320.701,144.971 v 2.517 c 0,8.077 2.655,15.874 6.205,20.526 3.185,4.175 10.35,9.662 17.388,9.662 h 3.775 c 16.085,0 27.996,-10.402 27.996,-26.101 v -4.402 c 0,-14.608 -10.959,-28.302 -25.48,-28.302 h -2.201 c -15.549,0 -27.683,10.897 -27.683,26.1 z"
       id="path8"
       inkscape:connector-curvature="0"
       style="clip-rule:evenodd;fill:#332d26;fill-rule:evenodd" /><path
       d="m 420.42,121.072 v 3.773 c 0,6.804 4.17,16.149 6.98,20.379 2.728,4.105 10.584,10.753 16.927,10.753 h 6.605 c 5.771,0 14.878,-4.624 17.853,-7.625 4.045,-4.082 8.256,-9.298 8.256,-17.218 v -3.459 c 0,-6.853 -4.609,-16.489 -7.679,-20.625 -3.254,-4.385 -10.89,-10.193 -18.114,-10.193 h -1.889 c -7.674,0 -15.119,3.471 -19.633,6.788 -3.993,2.934 -9.306,10.853 -9.306,17.427 z"
       id="path10"
       inkscape:connector-curvature="0"
       style="clip-rule:evenodd;fill:#332d26;fill-rule:evenodd" /><polygon
       points="522.949,127.003 533.512,122.253 509.374,70.61 500.043,74.924 515.373,109.193 478.629,84.939 468.524,89.636 492.478,141.244 502.292,136.755 486.902,103.296 "
       id="polygon12"
       style="clip-rule:evenodd;fill:#332d26;fill-rule:evenodd" /><path
       d="m 162.94,157.754 11.801,2.94 c 0.604,-1.142 7.15,-11.32 7.549,-11.32 2.645,0 8.088,1.797 10.821,2.39 3.375,0.732 7.993,2.06 11.164,2.332 l 1.961,14.184 0.319,-0.22 11.876,2.703 -9.437,-60.54 -11.864,-2.635 z"
       id="path14"
       inkscape:connector-curvature="0"
       style="clip-rule:evenodd;fill:#332d26;fill-rule:evenodd" /><path
       d="m 83.832,109.437 v 3.145 c 0,5.474 4.745,13.724 8.053,16.164 4.599,3.391 9.588,7.106 17.427,7.106 h 3.146 c 5.621,0 13.061,-5.92 15.365,-9.38 l -8.444,-7.601 c -3.431,2.296 -4.659,6.604 -11.64,6.604 -6.535,0 -12.583,-6.03 -12.583,-12.578 0,-8.903 8.372,-25.157 16.358,-25.157 h 3.775 c 5.731,0 11.325,5.625 11.325,11.95 l -0.021,2.922 11.294,2.418 0.364,-4.083 v -0.943 c 0,-12.363 -12.423,-22.327 -24.536,-22.327 h -1.888 c -9.433,0 -15.33,4.99 -19.562,10.318 -3.187,4.014 -8.433,14.486 -8.433,21.442 z"
       id="path16"
       inkscape:connector-curvature="0"
       style="clip-rule:evenodd;fill:#332d26;fill-rule:evenodd" /><path
       d="m 266.596,147.172 v 5.975 c 0,14.513 10.634,26.415 25.165,26.415 6.848,0 12.256,-1.584 15.967,-4.794 2.507,-2.168 7.94,-8.782 7.94,-12.816 l -0.006,-0.921 -11.004,-3.167 c -0.056,2.506 -2.595,6.849 -4.01,8.255 -2.104,2.09 -4.497,3.694 -8.572,3.694 h -0.629 c -8.788,0 -13.212,-9.055 -13.212,-18.239 v -3.145 c 0,-9.248 4.577,-17.924 13.526,-17.924 h 1.888 c 4.724,0 10.329,5.024 10.695,9.434 1.493,0 11.324,-2.2 11.324,-2.83 0,-3.896 -5.256,-10.129 -7.859,-11.954 -4.09,-2.866 -8.494,-4.398 -15.418,-4.398 -14.846,0 -25.795,11.807 -25.795,26.415 z"
       id="path18"
       inkscape:connector-curvature="0"
       style="clip-rule:evenodd;fill:#332d26;fill-rule:evenodd" /><path
       d="m 332.654,143.398 v 5.66 c 0,9.298 6.156,18.868 15.415,18.868 10.363,0 16.043,-6.899 16.043,-17.296 v -1.572 c 0,-9.675 -4.733,-20.125 -13.842,-20.125 h -3.774 c -7.23,0 -13.842,7.386 -13.842,14.465 z"
       id="path20"
       inkscape:connector-curvature="0"
       style="clip-rule:evenodd;fill:#ffffff;fill-rule:evenodd" /><path
       d="m 432.059,121.386 v 0.315 c 0,11.047 6.807,24.213 17.616,24.213 7.927,0 15.414,-5.926 15.414,-13.522 v -3.459 c 0,-8.211 -7.157,-21.698 -14.785,-21.698 h -5.033 c -2.643,0 -7.56,2.987 -9.049,4.476 -1.994,1.993 -4.163,5.778 -4.163,9.675 z"
       id="path22"
       inkscape:connector-curvature="0"
       style="clip-rule:evenodd;fill:#ffffff;fill-rule:evenodd" /><path
       d="m 376.395,116.433 -0.015,1.18 c 0,1.598 2.123,11.181 2.647,13.392 1.058,4.47 1.597,8.978 2.516,13.522 0.921,4.549 1.784,9.113 2.624,13.414 0.634,3.243 2.594,10.948 2.634,13.966 l 39.438,-7.468 -1.784,-9.688 -28.066,5.277 -9.006,-45.604 z"
       id="path24"
       inkscape:connector-curvature="0"
       style="clip-rule:evenodd;fill:#332d26;fill-rule:evenodd" /><polygon
       points="199.975,121.854 187.836,140.492 202.83,144.016 200.222,123.587 "
       id="polygon26"
       style="clip-rule:evenodd;fill:#ffffff;fill-rule:evenodd" /><polygon
       points="233.565,172.958 235.009,172.937 236.711,162.266 235.438,162.354 225.873,160.721 224.157,171.705 "
       id="polygon28"
       style="clip-rule:evenodd;fill:#332d26;fill-rule:evenodd" /><polygon
       points="133.917,134.934 130.181,144.894 140.369,148.712 144.263,138.592 "
       id="polygon30"
       style="clip-rule:evenodd;fill:#332d26;fill-rule:evenodd" /></g></svg>