<?xml version="1.0" encoding="UTF-8" standalone="no"?>
<svg
   xmlns:dc="http://purl.org/dc/elements/1.1/"
   xmlns:cc="http://creativecommons.org/ns#"
   xmlns:rdf="http://www.w3.org/1999/02/22-rdf-syntax-ns#"
   xmlns:svg="http://www.w3.org/2000/svg"
   xmlns="http://www.w3.org/2000/svg"
   xmlns:sodipodi="http://sodipodi.sourceforge.net/DTD/sodipodi-0.dtd"
   xmlns:inkscape="http://www.inkscape.org/namespaces/inkscape"
   version="1.1"
   id="svg10"
   width="250"
   height="250"
   viewBox="0 0 250 250"
   sodipodi:docname="Escudo del Club Social y Deportivo Defensa y Justicia.svg"
   inkscape:version="1.0 (4035a4fb49, 2020-05-01)">
  <metadata
     id="metadata16">
    <rdf:RDF>
      <cc:Work
         rdf:about="">
        <dc:format>image/svg+xml</dc:format>
        <dc:type
           rdf:resource="http://purl.org/dc/dcmitype/StillImage" />
        <dc:title />
      </cc:Work>
    </rdf:RDF>
  </metadata>
  <defs
     id="defs14" />
  <sodipodi:namedview
     inkscape:document-rotation="0"
     pagecolor="#ffffff"
     bordercolor="#666666"
     borderopacity="1"
     objecttolerance="10"
     gridtolerance="10"
     guidetolerance="10"
     inkscape:pageopacity="0"
     inkscape:pageshadow="2"
     inkscape:window-width="1366"
     inkscape:window-height="705"
     id="namedview12"
     showgrid="false"
     inkscape:zoom="1"
     inkscape:cx="-86.638364"
     inkscape:cy="75.401929"
     inkscape:window-x="-8"
     inkscape:window-y="-8"
     inkscape:window-maximized="1"
     inkscape:current-layer="g22" />
  <g
     transform="translate(-326.88232)"
     inkscape:groupmode="layer"
     inkscape:label="Image"
     id="g18">
    <g
       id="g876"
       transform="matrix(0.81922417,0,0,0.81415245,59.092424,-5.5362565e-8)">
      <g
         transform="translate(236.13383,19.033457)"
         id="g22">
        <g
           id="g33">
          <g
             id="g880">
            <path
               style="fill:#00722d;fill-opacity:1;stroke-width:0.32"
               d="m 242.68064,287.59596 c -1.08918,-0.87004 -4.36107,-2.27939 -18.43454,-6.40398 -21.48616,-6.29707 -48.01118,-16.77055 -59.75419,-23.59409 -20.52171,-11.92461 -32.23689,-27.89128 -36.36612,-49.56355 -1.55152,-8.14318 -1.80085,-11.84197 -1.77956,-26.4 0.0111,-7.568 0.186,-16.28 0.38872,-19.36 0.20272,-3.08 0.54125,-10.65862 0.75227,-16.84138 0.90197,-26.42695 -1.43678,-44.31238 -7.945,-60.758617 C 114.17136,71.102189 106.91844,60.215145 95.590513,48.721472 l -4.84202,-4.912867 3.11809,-3.025655 c 6.410147,-6.220144 10.737227,-14.149216 12.692207,-23.257635 0.74386,-3.465674 0.75781,-11.8690892 0.025,-15.0909792 -0.28019,-1.232 -0.48881,-2.25965997 -0.46359,-2.28368997 0.0252,-0.024 1.46285,0.05 3.19472,0.16458 14.49081,0.95845997 31.63709,-5.23610003 41.52183,-15.00089083 1.51438,-1.496 3.08254,-3.152 3.48478,-3.68 0.49606,-0.65112 0.7806,-0.82188 0.88438,-0.53072 0.0841,0.2361 0.76579,1.34311 1.51476,2.46002 6.60922,9.8560708 19.8003,18.4944108 37.55661,24.5944108 22.85741,7.8524182 48.42281,9.9858232 73.19143,6.1077432 25.6363,-4.013933 48.44859,-14.28544317 59.26112,-26.683034 1.90023,-2.17881 4.29933,-5.54426 4.65188,-6.52566 0.0804,-0.22369 0.44145,0.0162 0.86886,0.57724 1.62733,2.13605 6.40871,6.51554 9.11684,8.35055 3.83086,2.5957503 6.40212,3.9953508 10.47459,5.7015708 8.39263,3.51619003 17.40903,5.15832003 25.41519,4.62877003 1.73187,-0.11455 3.16949,-0.18861 3.19471,-0.16458 0.0252,0.024 -0.18339,1.05168997 -0.46359,2.28368997 -0.73903,3.24949 -0.71885,11.6240772 0.0365,15.1474972 2.09858,9.789031 7.23975,18.689648 14.37585,24.888103 l 1.51461,1.3156 -3.86935,3.8044 c -18.58213,18.270297 -28.64972,38.785017 -31.94008,65.084404 -1.51773,12.13102 -1.59211,22.90412 -0.34135,49.44 0.9853,20.90363 0.81978,31.50561 -0.65194,41.76 -1.22526,8.53715 -3.3191,15.58284 -6.71694,22.60224 -7.4103,15.30851 -19.96621,26.66022 -39.82951,36.00957 -13.12371,6.17713 -33.81818,13.86674 -50.72,18.84643 -13.91748,4.10043 -16.86957,5.41307 -17.95454,6.26338 -0.25255,0.19793 -0.60546,0.43838 -0.60546,0.43838 0,0 -0.35768,-0.24045 -0.60546,-0.43838 z"
               id="path24"
               sodipodi:nodetypes="ssssssssscssssssssssssssssssssscsssssssscs" />
            <path
               style="fill:#ffdd00;fill-opacity:1;stroke-width:0.32"
               d="m 242.6461,280.38435 c -0.87355,-0.49643 -5.18703,-1.87621 -12.48,-3.99205 -12.87065,-3.73406 -24.78543,-7.76568 -35.92164,-12.15488 -23.59845,-9.30102 -33.03204,-14.70066 -42.80686,-24.50198 -5.22869,-5.24285 -7.97356,-8.8959 -10.83591,-14.4211 -5.98477,-11.55243 -8.14477,-22.94214 -8.10162,-42.72 0.0123,-5.632 0.25687,-14.488 0.54352,-19.68 0.73253,-13.26816 0.98831,-34.30655 0.50421,-41.47209 -2.07389,-30.696637 -11.26727,-53.168634 -30.19024,-73.795965 -3.13306,-3.415255 -3.445127,-3.86202 -3.06015,-4.381024 0.23578,-0.317869 1.26918,-1.688077 2.29643,-3.044903 6.67207,-8.812665 11.09227,-20.588304 11.09227,-29.55037 V 7.1661658 l 2.8,-0.21372 c 7.36454,-0.56213 17.33682,-3.70181 25.68,-8.08511 3.53329,-1.85631 8.57118,-5.12397 10.70266,-6.9419405 l 1.26266,-1.07695 3.11611,3.1161105 c 12.7366,12.7366 34.83051,22.3637542 60.91856,26.5445162 8.90567,1.427187 13.64743,1.759277 25.12,1.759277 11.47257,0 16.21433,-0.33209 25.12,-1.759277 21.09048,-3.379872 39.9206,-10.444786 53.12,-19.93021617 3.18587,-2.28945003 7.52853,-6.08513003 9.27043,-8.10277053 l 1.48905,-1.72475 1.76423,1.43713 c 9.19829,7.49288053 24.86438,13.9112405 36.03629,14.7639805 l 2.8,0.21372 v 3.5038222 c 0,8.903929 4.44404,20.799852 10.99589,29.434121 1.08026,1.4236 2.16415,2.858006 2.40863,3.187564 0.4036,0.544048 0.25585,0.797245 -1.60528,2.750932 -12.94332,13.586934 -21.84699,28.817514 -26.66967,45.621018 -5.12333,17.851047 -6.25967,34.346387 -4.65487,67.570717 0.75788,15.69039 0.89781,30.50188 0.34766,36.8 -0.96551,11.0533 -3.04347,19.45661 -6.726,27.2 -3.26352,6.86234 -6.75791,11.68103 -12.53838,17.29014 -7.92927,7.69423 -17.16874,13.36405 -31.79798,19.5129 -15.59672,6.55549 -30.69206,11.87786 -47.2,16.64192 -5.23057,1.5095 -9.51457,2.88086 -11.84,3.79014 -0.264,0.10323 -0.696,0.0649 -0.96,-0.0851 z m 5.85254,-11.51357 c 2.8531,-0.85997 7.20346,-2.16201 9.66746,-2.89344 16.99199,-5.04403 38.86303,-13.29296 50.214,-18.93882 20.20627,-10.05041 30.6102,-22.51976 34.43036,-41.26556 1.92113,-9.42716 2.27164,-23.93866 1.10089,-45.57862 -0.42998,-7.94766 -0.62356,-15.81288 -0.62425,-25.36358 -6.4e-4,-9.10791 -0.11047,-13.79609 -0.321,-13.70474 -0.176,0.0764 -21.704,10.16844 -47.84,22.42683 -56.2798,26.39653 -59.65443,27.97839 -89.29837,41.85865 -12.59411,5.89697 -26.5621,12.44027 -31.04,14.54067 -4.47789,2.1004 -12.84732,6.02498 -18.59873,8.72128 l -10.45711,4.90237 0.49992,1.30926 c 5.23036,13.69807 15.10138,23.708 31.44596,31.88849 11.53691,5.77424 32.50045,13.74323 49.60833,18.8579 3.08,0.92082 7.832,2.36234 10.56,3.20339 2.728,0.84105 5.07364,1.545 5.21254,1.56433 0.13889,0.0193 2.58689,-0.66845 5.44,-1.52841 z m -67.45253,-94.2695 c 15.73865,-7.40943 19.91131,-9.75511 25.79029,-14.49819 6.96502,-5.61927 12.71092,-13.65205 14.94214,-20.8891 1.46936,-4.76595 1.81276,-7.27847 1.79041,-13.09965 -0.0181,-4.71055 -0.13213,-6.00567 -0.71804,-8.15413 -2.83063,-10.37951 -11.21836,-12.36039 -26.57034,-6.27494 -1.73553,0.68795 -8.28526,3.65981 -14.55498,6.60412 l -11.39948,5.3533 v 27.96012 27.96012 l 1.04,-0.44706 c 0.572,-0.24589 4.928,-2.27745 9.68,-4.51459 z m 4.07716,-30.09529 0.0828,-16.80835 4.11935,-1.92143 c 6.73015,-3.13922 11.13508,-3.94251 14.1385,-2.57831 1.75823,0.79862 3.56787,2.99886 4.23396,5.14785 0.79729,2.57231 0.69974,8.93092 -0.18739,12.21452 -1.6332,6.04508 -5.64312,11.49671 -11.26392,15.31373 -2.05939,1.3985 -10.05634,5.44034 -10.76395,5.44034 -0.37171,0 -0.429,-2.67945 -0.35938,-16.80835 z m 57.84283,8.57688 c 4.23178,-1.54642 6.72738,-3.00493 9.3095,-5.44078 2.54143,-2.39746 4.56764,-5.50229 6.04407,-9.26154 0.94639,-2.40968 9.67246,-33.42685 9.46293,-33.63638 -0.0509,-0.0509 -2.75085,1.14631 -5.99981,2.66055 l -5.90719,2.75316 -1.04657,5.97823 c -1.62005,9.25415 -2.00947,11.29836 -2.12943,11.1784 -0.0611,-0.0611 -0.78336,-3.12806 -1.60512,-6.81559 -0.82177,-3.68752 -1.5906,-6.81315 -1.70851,-6.94584 -0.16845,-0.18957 -12.2755,5.21334 -12.78703,5.70635 -0.10608,0.10225 3.21677,7.83087 8.17529,19.01491 0.58523,1.32 1.06582,2.73115 1.06796,3.13589 0.0117,2.19981 -2.47301,4.37098 -6.31609,5.51911 l -1.36,0.40631 v 3.63544 3.63544 l 0.88,-0.20637 c 0.484,-0.11351 2.248,-0.70628 3.92,-1.31729 z m 42.84584,-27.13542 c 6.29899,-1.68754 12.85988,-5.59154 17.33991,-10.31796 2.97231,-3.13579 4.62057,-5.69733 6.05405,-9.40855 1.8321,-4.74322 1.9202,-6.03563 1.9202,-28.170081 0,-19.473794 -0.0196,-20.133416 -0.59397,-19.951128 -0.32669,0.103683 -3.60269,1.608842 -7.28,3.344794 l -6.68603,3.156278 -0.1868,18.35677 c -0.20342,19.991187 -0.23156,20.310587 -2.13075,24.189237 -1.76566,3.60596 -5.50489,6.21237 -10.24245,7.13943 l -2,0.39137 v 6.03837 c 0,4.61778 0.0941,6.03817 0.4,6.03755 0.22,-3.2e-4 1.75263,-0.36318 3.40584,-0.80608 z M 253.17695,67.417654 c 60.26396,-28.260822 109.69196,-51.383315 109.84,-51.383315 0.14803,0 0.26915,-0.124426 0.26915,-0.276506 0,-0.152076 -0.612,-0.360697 -1.36,-0.463603 -2.03125,-0.279446 -8.66803,-2.249603 -12.0994,-3.591759 -4.26006,-1.666295 -10.38067,-4.6152852 -13.54116,-6.5243052 -1.47858,-0.89311 -2.79232,-1.62383 -2.91942,-1.62383 -0.1271,0 -1.47511,0.99197 -2.99556,2.20438 -16.99012,13.5478982 -42.76502,22.7164932 -71.77473,25.5315622 -6.87803,0.667437 -22.42025,0.751053 -29.06973,0.156394 -29.61538,-2.648487 -56.0412,-11.906317 -73.32446,-25.6879562 -1.52045,-1.21241 -2.86845,-2.20438 -2.99555,-2.20438 -0.12711,0 -1.44085,0.73072 -2.91942,1.62383 -7.04706,4.25662 -17.77588,8.5234472 -25.24056,10.0381062 -1.87732,0.380928 -1.92607,0.417475 -2.19276,1.643827 -2.08901,9.60624 -4.79665,16.70103 -9.04399,23.697824 -0.77179,1.271402 -1.40305,2.429712 -1.40279,2.574026 2.5e-4,0.144313 1.07857,1.55839 2.39627,3.14239 11.78169,14.162778 19.73024,29.83184 24.11535,47.538844 1.86101,7.514697 3.88604,20.149507 3.88753,24.255397 2.6e-4,0.73711 0.12592,1.0206 0.40039,0.90331 0.22,-0.094 49.70687,-23.293407 109.97084,-51.554236 z"
               id="path26" />
          </g>
        </g>
      </g>
    </g>
  </g>
</svg>
