<?xml version="1.0" encoding="UTF-8" standalone="no"?>
<!-- Generator: Adobe Illustrator 22.1.0, SVG Export Plug-In . SVG Version: 6.00 Build 0)  -->

<svg
   xmlns:dc="http://purl.org/dc/elements/1.1/"
   xmlns:cc="http://creativecommons.org/ns#"
   xmlns:rdf="http://www.w3.org/1999/02/22-rdf-syntax-ns#"
   xmlns:svg="http://www.w3.org/2000/svg"
   xmlns="http://www.w3.org/2000/svg"
   xmlns:sodipodi="http://sodipodi.sourceforge.net/DTD/sodipodi-0.dtd"
   xmlns:inkscape="http://www.inkscape.org/namespaces/inkscape"
   version="1.1"
   id="Layer_1"
   x="0px"
   y="0px"
   viewBox="0 0 800 800"
   style="enable-background:new 0 0 800 800;"
   xml:space="preserve"
   sodipodi:docname="rosario-central-logo-escudo.svg"
   inkscape:version="0.92.2 (5c3e80d, 2017-08-06)"><metadata
     id="metadata79"><rdf:RDF><cc:Work
         rdf:about=""><dc:format>image/svg+xml</dc:format><dc:type
           rdf:resource="http://purl.org/dc/dcmitype/StillImage" /></cc:Work></rdf:RDF></metadata><defs
     id="defs77" /><sodipodi:namedview
     pagecolor="#ffffff"
     bordercolor="#666666"
     borderopacity="1"
     objecttolerance="10"
     gridtolerance="10"
     guidetolerance="10"
     inkscape:pageopacity="0"
     inkscape:pageshadow="2"
     inkscape:window-width="1600"
     inkscape:window-height="837"
     id="namedview75"
     showgrid="false"
     inkscape:zoom="0.295"
     inkscape:cx="462.15447"
     inkscape:cy="262.18422"
     inkscape:window-x="-8"
     inkscape:window-y="-8"
     inkscape:window-maximized="1"
     inkscape:current-layer="Layer_1" /><style
     type="text/css"
     id="style2">
	.st0{fill-rule:evenodd;clip-rule:evenodd;fill:#2E3192;}
	.st1{fill-rule:evenodd;clip-rule:evenodd;fill:#FFCB05;}
</style><g
     id="g72"
     inkscape:export-filename="G:\Users\suitedoalex\sites\rosario-central-logo-escudo-7.png"
     inkscape:export-xdpi="6.985785"
     inkscape:export-ydpi="6.985785"><path
       class="st0"
       d="M672.3,113.1c5.8,5.6,12.9,12.9,17.3,19.5c7.1,10.7,13.8,29.9,13.8,29.9s9.6-15.8,14.1-22.9   c5.8-9.1,20.5-24,20.9-24c0.5,0,2.7,21.7,3.3,29.9c0.6,8.2,0.9,24.5-2.5,41.8c-3.6,18.6-13.9,35.2-18.8,42.9   c-4.9,7.7-38.8,40.1-38.3,40.6c0.5,0.4,7.9,10.3,12.6,17.9c4.7,7.6,8.5,23.5,8.5,23c0-0.5,9.7-15.6,15-23.4   c7.6-11,20.9-25.2,20.9-24.8c0,0.5,3.3,33.8,3.4,38.9c0.1,5,1.8,22.7-6,46.4c-8.6,26.3-31.3,49-34.5,51.8   c-3.1,2.8-20.5,19.4-20.5,19.4s6.5,6.7,12.6,18.4c6.1,11.7,9,27.6,9.4,24.4c0.4-3.2,10-17.4,15-23.4c8-9.6,21.4-23.5,21.4-23.5   s3.5,19.9,3.7,28.1c0.1,7.3-0.5,22.7-5.6,46.8c-5,24.1-27.2,49.5-31.2,55c-4,5.4-26.3,23.2-25.8,23.6c0.5,0.4,7.8,10.3,12.1,17.5   c4.2,7.1,9,24.8,9,24.8s8.4-15.7,15.1-24.8c7.4-10.1,21.3-24,21.3-24s4.2,24.2,3.9,39.9c-0.4,19.4-1.3,31-8.2,49.2   c-8,21.1-16.6,31.8-32.2,48.1c-8.3,8.6-23.7,18.6-23.7,18.6l-1.1-13.6c0,0-1.7,0.7-3.8,1.9v26v1.5v1.9l-0.2,2.2l-0.3,2.5l-0.5,2.9   l-0.8,3.2l-1.3,3.9l-2,4.1l-3,4.4l-4.2,4.6l-5.2,3.9l-6.2,2.9l-6.4,1.7l-7.9,0.7l-10.6-2l-9.1-5.3l-5.7-5.6l-3.4-4.7l-2.2-4.1   l-1.3-3.1l-1-2.4l-0.2-0.7l-0.2-0.5l-0.2-0.5l-0.2-0.5l-0.3-0.7l-0.2-0.7l-0.3-0.7l-0.3-1l-0.5-0.8l-0.3-1l-0.5-1l-0.5-1l-0.5-1   l-0.5-1l-0.5-1l-0.7-1l-0.5-1l-0.5-1l-0.7-0.8l-0.5-0.8l-0.5-0.8l-0.5-0.7L592,727l-0.3-0.5l-0.5-0.3l-0.5-0.3h-0.5h-0.7l-0.7,0.2   l-0.7,0.2l-1,0.2l-1.2,0.3l-1.3,0.5l-1.3,0.7l-1.7,0.8l-1.7,0.8l-1.9,1.2l-2,1l-2,1.4l-2.2,1.4l-2.2,1.5l-2.2,1.5l-2.5,1.5   l-2.4,1.7l-2.5,1.9l-2.7,1.7l-2.7,1.7l-2.9,1.9l-2.9,1.9l-3,1.7l-3,1.7l-3.2,1.7l-4.2,2l-4.2,2l-4,2l-4.2,1.9l-4.2,1.9l-4,1.9   l-4.2,1.9l-4.2,1.9l-4.4,1.7l-4.2,1.7l-4.2,1.7l-4.4,1.5l-4.4,1.5l-4.4,1.5l-4.6,1.4l-4.5,1.4l-4.5,1.4l-4.5,1.2l-4.5,1.2l-4.7,1.2   l-4.7,1l-4.7,0.8l-4.9,0.8l-4.9,0.8l-4.9,0.7l-5.1,0.7l-5.2,0.5l-5.1,0.3l-5.2,0.3l-5.2,0.3h-5.4l-5.7,0.2l-19.5-0.5l-19.4-1.5   l-18.7-2.4l-18.4-3.6l-17.7-4.2l-17.3-5.3l-16.7-6.3l-16-6.9l-15.5-8l-15-8.6l-14.1-9.5L190,727.2l-13.1-11l-12.3-11.5l-11.6-12.4   l-11.1-12.9L131.5,666l-9.8-14.1l-8.9-14.6l-8.4-15.1l-7.7-15.6l-6.9-15.9l-6.4-16.4l-5.7-16.8l-4.9-17.1L68.4,523l-3.7-17.8   l-3-18.1l-2.4-18.3l-1.5-18.5l-1-18.8l-0.3-19l0.3-20.8l1-20.5l1.9-20.2l2.5-19.8l3.2-19.5l3.9-19.1l4.5-18.8l5.2-18.3l6.1-18   l6.7-17.5L99,203l8.1-16.6l8.8-15.9l9.4-15.4l9.9-14.7L146,126l11.5-13.7l12.1-12.9l12.6-12.2l13.5-11.4l14-10.8l14.7-9.8l15.2-9.2   l15.8-8.1l16.5-7.5l16.8-6.4l17.5-5.4l18-4.6l18.5-3.6l18.9-2.5l19.5-1.5l19.7-0.5l8.6,0.2l8.1,0.3l8.1,0.7l7.7,1l7.6,1.2l7.2,1.5   l7.2,1.7l7.1,1.7l6.9,2l6.7,2.2l6.4,2.4l6.4,2.4l6.2,2.5l6.1,2.7l5.9,2.7l5.9,2.7l5.7,2.7l5.6,2.9l5.7,2.7l5.4,2.9l5.6,2.7l5.4,2.7   l5.4,2.7l5.4,2.7l5.4,2.5l5.4,2.5l5.4,2.4l5.4,2.4l5.6,2.2l5.7,2.2l5.7,2l2.7,0.8l0.7-0.3l0.7-0.3l0.5-0.3l0.5-0.3l0.5-0.5l0.2-0.5   l0.2-0.5l0.3-0.7l0.2-0.5l0.2-0.5l0.2-0.7l0.2-0.7l0.2-0.5l0.2-0.7l0.2-0.5l0.2-0.5l0.2-0.5l0.2-0.5v-0.7l0.2-0.5L604,62l0.5-2.7   l1.2-3.9l2.2-5.1l4.2-6.4l7.7-6.9l11.3-4.6l13-0.3l13.1,5.1l8.9,9.7l3.7,8l1.5,5.8l0.5,4.1l0.3,3.2v2v0.5L672.3,113.1L672.3,113.1   L672.3,113.1z"
       id="path4"
       style="fill:#004070;fill-opacity:1" /><path
       class="st1"
       d="M596.5,530.8c-4-4.3-15.2-18.8-21.5-50.9c-4.9-24.9,1.5-65.1,1.5-65.1s7.3,7,18.8,22.4   c10,13.4,19.2,29,19.2,29s1.6-15.3,5.6-24.1c4.3-9.7,16.1-21.8,16.1-21.8s-39-25.8-53.6-64.9c-12.4-33-4.6-90.2-4.6-90.2   s9.6,8.5,19.3,21.1c11.1,14.3,15,23.5,15,23.5l6.2-9.5l-6.6-4.7l-5.2-6.4l-3-5.8l-1.7-4.7l-0.8-3.4l-0.2-1.4l-1.7-10.2l-1.9-9.5   l-2.2-9.3l-2.4-9.2l-2.7-8.8l-3-8.6l-3.4-8.3l-3.5-8l-3.9-7.8l-4-7.5l-4.4-7.3l-4.7-6.9l-4.9-6.6l-5.2-6.4l-5.4-6.1l-5.7-5.8   l-5.9-5.4l-6.2-5.3l-6.6-4.7l-6.9-4.6l-7.1-4.2l-7.4-4.1l-7.7-3.6l-7.9-3.2l-8.4-3.1l-8.6-2.5l-9.1-2.2l-9.4-1.9l-9.4-1.5l-10.1-1   l-10.4-0.7l-10.6-0.2L397,99.9l-12.5,1.4l-11.6,2l-11.3,3.1l-10.6,3.7l-10.1,4.6l-9.8,5.1l-9.3,5.9l-9.1,6.6l-8.4,7.3l-8.3,8   l-7.9,8.6l-7.4,9.2l-7.1,9.8l-6.7,10.3l-6.4,11l-6.1,11.4l-5.6,12l-5.2,12.2l-4.7,12.7l-4.4,13l-4,13.4l-3.5,13.6l-3.2,13.9   l-2.9,14.1l-2.4,14.1l-2,14.2l-1.7,14.2l-1.3,14.2l-0.8,14.1l-0.5,14.1l-0.2,13.9l0.2,13.9l0.7,13.7l1.2,13.7l1.7,13.6l2,13.6   l2.5,13.6l2.9,13.4l3.4,13l3.9,13l4.2,12.7l4.5,12.4l5.1,12l5.4,11.9l5.7,11.4l6.1,10.8l6.6,10.5l6.7,10.2l7.2,9.5l7.4,9l7.7,8.3   l8.1,8l8.3,7.3l8.6,6.6l8.8,5.9l9.1,5.4l9.3,4.6l9.6,4.1l9.9,3.4l10.1,2.5l10.4,1.9l10.8,1.2l11.3,0.5l7.7-0.2l7.9-0.5l7.9-0.8   l7.7-1.2l7.4-1.5l7.4-1.7l7.2-2.2l7.2-2.4l7.1-2.7l6.9-3.2l6.7-3.2l6.7-3.7l6.4-4.1l6.4-4.2l6.2-4.6l5.9-5.1l5.9-5.3l5.7-5.4   l5.6-5.9l5.4-6.3l5.2-6.4l5.1-6.9l4.7-7.1l4.7-7.6l4.4-7.8l4-8.1l4-8.6l3.7-8.8l3.4-9.2l3.2-9.5l3-9.8l2.2-8.3l0.2-1.9l0.5-2.4   l0.5-2.9L596.5,530.8L596.5,530.8L596.5,530.8z"
       id="path6" /><polygon
       class="st0"
       points="256.8,222.7 283.9,222.2 291.8,196.2 300.7,221.9 327.8,221.4 306.1,237.7 314.9,263.4 292.7,247.8 271,264.2 279,238.2 "
       id="polygon10"
       style="clip-rule:evenodd;fill:#004070;fill-opacity:1;fill-rule:evenodd;stroke:none;stroke-opacity:1"
       transform="matrix(0.71303855,0,0,0.71303855,65.699272,77.088212)" /><path
       class="st1"
       d="M693.4,244.8c0,0,1.5-29,9.4-54.7c9.5-30.5,29-51.7,29-51.7s6.6,28.1-7,61.6   C713.1,228.9,693.4,244.8,693.4,244.8L693.4,244.8L693.4,244.8z"
       id="path16" /><path
       class="st1"
       d="M693,395.4c0,0,1.4-29,9.4-54.7c9.5-30.5,29-51.7,29-51.7s6.6,28.1-7,61.6C712.7,379.6,693,395.4,693,395.4   L693,395.4L693,395.4z"
       id="path18" /><path
       class="st1"
       d="M692,546.1c0,0,1.4-29,9.4-54.7c9.5-30.5,31-51.5,31-51.5s4.6,27.9-9,61.4C711.7,530.3,692,546.1,692,546.1   L692,546.1L692,546.1z"
       id="path20" /><path
       class="st1"
       d="M691.7,695.1c0,0,1.1-27.3,9.1-52.9c9.5-30.5,30.3-54.8,30.3-54.8s5.3,31.2-8.3,64.7   C711.1,681,691.7,695.1,691.7,695.1L691.7,695.1L691.7,695.1z"
       id="path22" /><path
       class="st1"
       d="M586.5,292.5c0,0,15.1,26.3,23.3,48.7c7.5,20.5,17.6,53.1,17.6,53.1s-20.1-12.1-31.1-37   c-5.6-12.5-7-17.8-9.5-33.7C584.8,311.7,586.5,292.5,586.5,292.5L586.5,292.5L586.5,292.5z"
       id="path24" /><path
       class="st1"
       d="M657.4,539.9l-1.2-122.2c0,0-10.8,3.7-19.6,17.7c-7,11.1-10,19.1-11.9,32.5c-1.5,10.7-0.7,17,0.8,27.6   c1.1,7.3,1.8,11.5,4.1,18.5c1,2.9,1.3,5,1.3,5s-3.3,1-5.2,2.6c-2,1.7-4,5.2-4,5.2s-4.9-14.9-9.3-26.1c-4.6-11.5-7.2-18-12.7-29   c-5.3-10.6-14.9-26.6-14.9-26.6s-0.9,22.6,2,36.5c2.6,12.5,4.1,20.2,11.1,30.9c7.9,12.2,10.8,14.4,22.6,28.5l2.3-11.3l6.5-2.4   L657.4,539.9L657.4,539.9L657.4,539.9z"
       id="path26" /><path
       class="st0"
       d="M567.7,286.5c-2.6,9.2-4.1,18.9-4.1,29.4v245c0,16.3-4.7,29.6-13.9,39.8v-0.2c-10.8,10.8-24.8,18.2-42.2,21.8   h0.2c-3.7,0.6-7.5,1.4-11.7,2.8c-9.7,3.2-21,8.7-33.8,16.3c-15.1,8.7-32.3,20.5-51.2,35c-42.4-32.4-74.7-50.4-96.5-54.2h0.2   c-17.6-3.7-31.6-11-42.4-21.8l0.2,0.2c-9.4-10.2-14.1-23.5-14.1-39.8v-245c0-10.4-1.5-20.2-4.1-29.4c44-6.7,82.8-21.1,116.5-42.5   c14.5-9.2,27.8-19.6,40.2-31.6C452.5,252.2,504.7,277,567.7,286.5L567.7,286.5L567.7,286.5z"
       id="path30"
       style="fill:#004070;fill-opacity:1" /><path
       class="st1"
       d="M514.7,297.6c5.9,0,11,2.1,15.3,6.4c1.5,1.5,2.7,3.1,3.7,4.9l9.4-8.2c-1.2-1.8-2.7-3.6-4.5-5.4   c-6.5-6.6-14.5-9.8-23.8-9.8c-9.4,0-17.3,3.2-24.1,9.8c-6.5,6.7-9.8,14.6-9.8,24.1c0,9.4,3.3,17.3,9.8,23.8   c6.5,6.5,14.3,9.7,23.5,10h1.6c9-0.2,16.6-3.7,22.8-10c1.8-1.7,3.3-3.5,4.5-5.3l-9.4-8.2c-1,1.6-2.2,3.3-3.7,4.7   c-0.2,0-0.2,0-0.2,0.2c-4.1,4.3-9.2,6.4-15.1,6.4s-11-2.1-15.3-6.4c-4.3-4.3-6.3-9.4-6.3-15.3c0-6,2-11,6.1-15.3   c0.2,0,0.2,0,0.2-0.2C503.7,299.7,508.8,297.6,514.7,297.6L514.7,297.6L514.7,297.6z"
       id="path32" /><path
       class="st1"
       d="M434.3,250.5c-4.1-3.7-8.1-7.4-12.3-10.8v113.2h12.3v-20.2c3.3-0.2,6.5-0.6,9.8-1.6l8.4,21.8h13.1l-10.4-27.3   c23.8-16.5,22-37.1-5.8-61.8C444.3,259.5,439.4,255.1,434.3,250.5L434.3,250.5L434.3,250.5L434.3,250.5z M434.3,266.9   c2.3,2,4.8,4.1,7.2,6.1h-0.3c10.9,9.6,17,18.1,18.2,25.8c-0.2,5.1-3.1,10-8.8,14.7c-0.8,0.6-1.6,1.5-2.6,2.1h0.2   c-2.6,1.8-5.4,3.1-8.4,3.8c-1.8,0.4-3.7,0.6-5.5,0.8V266.9L434.3,266.9L434.3,266.9z"
       id="path36" /><path
       class="st1"
       d="M399.9,239.4c-9.2,7.3-19,14-29,20.4c-3.8,2.2-8,4.7-12.3,6.9v86.5h12.3v-16.3h16.7v16.3h12.3V239.4   L399.9,239.4L399.9,239.4L399.9,239.4z M370.9,273.9c5.8-3.3,11.2-6.8,16.7-10.4v61.2h-16.7V273.9L370.9,273.9L370.9,273.9z"
       id="path38" /><path
       class="st1"
       d="M321.9,304c1.5,1.5,2.7,3.1,3.7,4.9l9.4-8.2c-1.2-1.8-2.7-3.6-4.5-5.4c-6.5-6.6-14.5-9.8-23.8-9.8   c-9.4,0-17.3,3.2-24.1,9.8c-6.5,6.7-9.8,14.6-9.8,24.1c0,9.4,3.3,17.3,9.8,23.8c6.5,6.5,14.3,9.7,23.5,10h1.6   c9-0.2,16.6-3.7,22.8-10c1.8-1.7,3.3-3.5,4.5-5.3l-9.4-8.2c-1,1.6-2.2,3.3-3.7,4.7c-0.2,0-0.2,0-0.2,0.2c-4.1,4.3-9.2,6.4-15.1,6.4   s-11-2.1-15.3-6.4c-4.3-4.3-6.4-9.4-6.4-15.3c0-6,2.1-11,6.1-15.3c0.2,0,0.2,0,0.2-0.2c4.2-4.1,9.4-6.1,15.3-6.1   S317.7,299.7,321.9,304L321.9,304L321.9,304z"
       id="path40" /><path
       class="st1"
       d="M 548.10508,587.14234 549.8,366.8 h -33.9 l 0.2,239.53332 c 3.1,-0.95966 6.1,-1.53546 9.1,-2.11127 17.44179,-5.82908 15.80508,-13.24104 22.90508,-17.07971 z"
       id="path48"
       inkscape:connector-curvature="0"
       style="clip-rule:evenodd;fill:#ffcb05;fill-rule:evenodd;stroke-width:0.97962683"
       sodipodi:nodetypes="cccccc" /><path
       class="st1"
       d="M655.8,407.9l1.6-138.2c0,0-31.2,14.9-31.2,58.3C626.2,387.7,655.8,407.9,655.8,407.9L655.8,407.9L655.8,407.9   z"
       id="path56" /><polygon
       class="st1"
       points="451.9,27.2 445.3,25.7 438.4,24.4 431.3,23.2 423.9,22.3 416.5,21.7 408.8,21.3 400.8,21.1    381.8,21.7 363.3,23 345.1,25.6 327.4,28.9 310.2,33.3 293.6,38.4 277.6,44.7 261.9,51.7 246.9,59.4 232.4,68.1 218.4,77.6    205.1,87.7 192.5,98.6 180.4,110.3 168.8,122.5 158,135.5 147.5,149.1 137.9,163.3 129,178.1 120.6,193.5 112.8,209.3 105.8,225.7    99.4,242.5 93.5,259.9 88.4,277.7 83.9,295.9 80.2,314.3 77.1,333.3 74.6,352.6 72.9,372.3 71.9,392.1 71.6,412.5 71.9,430.9    72.8,449.2 74.4,467 76.6,484.8 79.7,502.3 83.2,519.6 87.4,536.5 92.1,552.9 97.7,569 103.7,584.8 110.5,600.2 117.9,615.1    125.8,629.6 134.4,643.4 143.7,656.8 153.6,669.7 164,682.1 175.2,693.8 186.9,704.8 199.2,715.1 212.2,724.8 225.9,733.8    240,742.1 254.7,749.5 270,756.3 285.8,762.1 302.1,767.2 319.2,771.2 336.7,774.6 354.7,777 373.2,778.3 392.1,778.9 397.3,778.9    402.4,778.7 407.4,778.3 412.3,778 417.2,777.7 422.1,777.2 426.8,776.7 431.5,776 436,775.3 440.8,774.4 445.3,773.6 449.5,772.6    454.1,771.6 458.4,770.4 462.7,769.2 467,768 471.2,766.7 475.6,765.3 479.8,763.9 483.9,762.4 488.1,760.9 492.3,759.4    496.3,757.7 500.4,756.1 504.4,754.3 508.5,752.6 512.5,750.7 516.5,748.9 520.6,747 524.6,745.1 528.7,743.1 532.9,741.1    535.6,739.7 538.4,738.2 541.1,736.5 543.8,735 546.4,733.3 548.9,731.6 551.4,729.9 553.9,728.2 556.5,726.5 558.8,724.8    561.3,723.3 563.7,721.6 565.9,720.2 568.3,718.7 570.4,717.5 572.6,716.2 574.8,715.1 576.8,714.1 578.9,713.1 580.7,712.4    582.6,711.7 584.4,711.2 586.1,710.9 587.6,710.7 589.1,710.6 590.5,710.6 592,710.6 593.3,710.9 594.7,711.2 596.2,711.6    597.7,712.3 599.2,713.1 599.7,713.4 600.3,713.8 600.8,714.3 601.4,714.8 602.1,715.5 602.9,716.3 603.6,717.2 604.5,718.2    605.3,719.2 606,720.4 606.8,721.6 607.5,722.8 608.3,723.9 609,725.3 609.7,726.5 610.4,727.8 611,729 611.5,730.2 612.2,731.6    612.7,732.6 613.2,733.8 613.7,735 614.1,735.8 614.4,736.8 614.7,737.7 615.1,738.4 615.2,739 615.4,739.5 615.6,740 615.7,740.2    615.7,740.4 615.9,740.9 616.6,742.4 617.4,744.6 618.9,747.2 621.1,750.2 624.5,753.6 629.7,756.7 635.8,757.7 640.3,757.3    644,756.3 647.6,754.6 650.6,752.4 653,749.9 654.8,747.3 656,744.8 656.8,742.6 657.3,740.4 657.7,738.5 657.9,737 658,735.6    658,734.3 658,733.4 658,733.1 658,546.5 658,545.8 658,544.6 658,543.3 657.9,541.8 657.7,539.9 657.3,537.9 657,535.7    656.2,533.1 655.3,530.4 653.8,527.5 651.6,524.5 648.6,521.6 644.7,519.1 640.2,517.4 636.5,517 632.6,516.9 628,517.5    623.8,519.2 620.1,521.4 617.1,524.1 614.9,527 613.2,529.7 612,532.4 611,534.8 610.5,537.2 610,539.2 609.7,540.9 609.5,542.4    609.5,543.3 607,552.9 603.8,563.3 600.4,573.3 596.7,583.1 592.8,592.4 588.6,601.4 584.3,610.1 579.5,618.5 574.7,626.5    569.4,634.3 564,641.6 558.5,648.7 552.8,655.3 546.7,661.8 540.6,667.7 534.2,673.4 527.7,678.9 520.9,683.8 514,688.5    506.9,692.9 499.7,696.8 492.3,700.6 484.7,703.9 477.1,706.8 469.2,709.5 461.3,711.9 453.2,713.8 445.1,715.5 436.7,716.7    428.3,717.5 419.7,718.2 411.1,718.4 398.8,717.8 387,716.7 375.6,714.5 364.3,711.6 353.5,707.8 342.9,703.4 332.6,698.4    322.7,692.4 313.1,686 303.8,678.7 294.9,670.9 286.3,662.4 277.9,653.4 270,644 262.4,633.8 255.3,623.3 248.4,612.1 242,600.6    236,588.7 230.2,576.5 225,563.8 220.3,550.9 215.9,537.7 211.9,524.1 208.5,510.4 205.5,496.7 202.8,482.6 200.6,468.6    198.9,454.5 197.7,440.3 197,426 196.9,411.8 197,397.4 197.6,383 198.4,368.4 199.7,353.6 201.4,339.1 203.6,324.5 206.1,309.9    209,295.5 212.2,281.3 216.1,267.2 220.1,253.3 224.7,239.8 229.7,226.5 235.1,213.7 241,201.1 247.2,189.1 254,177.6 261.1,166.6    268.8,156 276.7,146.2 285.1,136.9 294.1,128.3 303.5,120.3 313.3,113.2 323.5,106.6 334.3,101 345.4,95.9 357.2,91.8 369.5,88.6    382.3,86.1 395.8,84.7 409.9,84.2 421.4,84.4 432.3,85 443.1,86.2 453.4,87.7 463.5,89.8 473.1,92.2 482.5,95 491.6,98.1    500.2,101.8 508.6,105.7 516.7,109.9 524.5,114.7 532,119.6 539.1,124.9 546,130.6 552.4,136.6 558.7,142.8 564.7,149.4    570.3,156.4 575.7,163.7 580.7,171.1 585.4,178.9 589.8,187.1 594,195.4 597.7,204 601.3,213 604.5,222.1 607.3,231.5 610,241.1    612.2,250.9 614.2,260.9 615.9,271.5 615.9,272.3 616.4,274.3 617.4,277 619.3,280.6 622.3,284.3 627,287.7 632.8,289.8    639.3,289.9 645.9,288.4 651.5,284.3 654.7,279.6 656.3,275.5 657.2,272.3 657.3,269.8 657.5,268.1 657.5,267.4 657,70.1 657,69.8    657,68.3 656.8,66.2 656.5,63.3 655.5,60 653.5,55.4 648.6,50 641.3,47.4 634.1,47.4 627.9,50.1 623.7,53.9 621.3,57.6 620,60.6    619.1,63 618.8,64.7 618.8,65.2 618.8,65.4 618.6,65.5 618.6,65.9 618.6,66.4 618.4,66.7 618.3,67.2 618.1,67.9 617.9,68.6    617.8,69.3 617.6,70 617.4,70.8 617.3,71.5 616.9,72.3 616.6,73.2 616.4,74 616.1,74.9 615.7,75.7 615.4,76.4 615.1,77.2    614.7,77.9 614.4,78.6 614.1,79.3 613.7,80 613.4,80.5 613.2,81 612.9,81.3 612.7,81.6 612.5,81.8 612.4,82 612.2,82 611.2,82.8    610.2,83.7 609.2,84.4 608.2,85 607.3,85.5 606.5,86.1 605.5,86.4 604.8,86.9 604,87.1 603.1,87.4 602.4,87.7 601.8,87.9    601.1,88.1 600.4,88.1 599.9,88.3 599.4,88.3 598.9,88.4 598.4,88.4 598.1,88.4 597.6,88.4 597.2,88.4 596.9,88.4 596.7,88.4    596.4,88.4 590.8,86.6 584.8,84.4 578.9,82.2 573,79.8 567.2,77.4 561.7,74.9 556,72.2 550.6,69.6 545,66.9 539.5,64.2 534.1,61.5    528.7,58.6 523.1,55.9 517.7,53 512.2,50.3 506.4,47.6 500.9,45 495.2,42.3 489.3,39.8 483.4,37.4 477.3,35 471.2,33 464.8,30.8    458.4,28.9 451.9,27.2 451.9,27.2  "
       id="polygon68" /><path
       class="st0"
       d="M592.5,103.2C521.9,81,480.5,36.4,401,36.4C203.5,36.4,86.7,201,86.7,412.5c0,192.4,108,351.1,305.5,351.1   c52.4,0,91.5-15.1,133.9-36.1c25.6-12.7,52.4-43.9,80.7-27.6c14.3,8.1,23.4,35.8,23.4,35.8s2,6.8,6.4,6.8c7.1,0,6.2-8.8,6.2-8.8   V546.2c0,0,0.8-13.9-7.4-13.9c-10.6-1.2-10.8,12.5-10.9,13.7c-29.6,120.8-113.7,187.6-213.4,187.6   c-143.5,0-229.4-164.7-229.4-321.8c0-156.3,63.5-342.8,228.2-342.8c130.2,0,204.5,84.4,221,200.1c0,0,0.7,6.1,6.9,5.6   c4.9-0.3,4.5-7.1,4.5-7.1L641.9,70c0,0,0.3-6.9-3-7.3c-4.4-0.7-5.1,5.1-5.1,5.1s-3.2,18.8-11.6,25.9   C606.1,107.2,592.5,103.2,592.5,103.2L592.5,103.2L592.5,103.2z"
       id="path70"
       style="fill:#004070;fill-opacity:1" /><polygon
       class="st0"
       points="283.9,222.2 291.8,196.2 300.7,221.9 327.8,221.4 306.1,237.7 314.9,263.4 292.7,247.8 271,264.2 279,238.2 256.8,222.7 "
       id="polygon10-4"
       style="clip-rule:evenodd;fill:#004070;fill-opacity:1;fill-rule:evenodd"
       transform="matrix(0.71303855,0,0,0.71303855,115.96402,40.157961)" /><polygon
       class="st0"
       points="292.7,247.8 271,264.2 279,238.2 256.8,222.7 283.9,222.2 291.8,196.2 300.7,221.9 327.8,221.4 306.1,237.7 314.9,263.4 "
       id="polygon10-4-0"
       style="clip-rule:evenodd;fill:#004070;fill-opacity:1;fill-rule:evenodd"
       transform="matrix(0.8892865,0,0,0.8892865,120.70355,-40.406748)" /><polygon
       class="st0"
       points="283.9,222.2 291.8,196.2 300.7,221.9 327.8,221.4 306.1,237.7 314.9,263.4 292.7,247.8 271,264.2 279,238.2 256.8,222.7 "
       id="polygon10-4-4"
       style="clip-rule:evenodd;fill:#004070;fill-opacity:1;fill-rule:evenodd"
       transform="matrix(0.71303855,0,0,0.71303855,286.37613,41.401865)" /><polygon
       class="st0"
       points="271,264.2 279,238.2 256.8,222.7 283.9,222.2 291.8,196.2 300.7,221.9 327.8,221.4 306.1,237.7 314.9,263.4 292.7,247.8 "
       id="polygon10-6"
       style="clip-rule:evenodd;fill:#004070;fill-opacity:1;fill-rule:evenodd"
       transform="matrix(0.71303855,0,0,0.71303855,329.63517,77.753419)" /><polygon
       class="st0"
       points="283.9,222.2 291.8,196.2 300.7,221.9 327.8,221.4 306.1,237.7 314.9,263.4 292.7,247.8 271,264.2 279,238.2 256.8,222.7 "
       id="polygon10-4-0-7"
       style="clip-rule:evenodd;fill:#004070;fill-opacity:1;fill-rule:evenodd"
       transform="matrix(0.8892865,0,0,0.8892865,186.70355,-40.406748)" /><path
       class="st1"
       d="M 275.5286,587.14234 273.9,366.8 h 32.57339 l -0.19217,239.53332 c -2.97869,-0.95966 -5.86129,-1.53546 -8.74389,-2.11127 -16.75924,-5.82908 -15.18658,-13.24104 -22.00873,-17.07971 z"
       id="path48-4"
       inkscape:connector-curvature="0"
       style="clip-rule:evenodd;fill:#ffcb05;fill-rule:evenodd;stroke-width:0.9602676;fill-opacity:1"
       sodipodi:nodetypes="cccccc" /><path
       class="st1"
       d="M 334.68114,612.05559 333.9,366.8 h 32.57339 l -0.82776,260.93162 c -2.97869,-1.02756 -6.07316,-2.70343 -8.95576,-3.31998 -16.75924,-6.24154 -15.18658,-8.24576 -22.00873,-12.35605 z"
       id="path48-4-2"
       inkscape:connector-curvature="0"
       style="clip-rule:evenodd;fill:#ffcb05;fill-opacity:1;fill-rule:evenodd;stroke-width:0.99366081"
       sodipodi:nodetypes="cccccc" /><path
       class="st1"
       d="M 491.11885,612.05559 491.9,366.8 h -32.57339 l 0.82776,260.93162 c 2.97869,-1.02756 6.07316,-2.70343 8.95576,-3.31998 16.75924,-6.24154 15.18658,-8.24576 22.00872,-12.35605 z"
       id="path48-4-2-4"
       inkscape:connector-curvature="0"
       style="clip-rule:evenodd;fill:#ffcb05;fill-opacity:1;fill-rule:evenodd;stroke-width:0.99366075"
       sodipodi:nodetypes="cccccc" /><path
       class="st1"
       d="M 396.68114,643.12084 395.9,366.8 h 32.57339 l 0.44343,277.09354 -16.98091,11.87723 z"
       id="path48-4-2-8"
       inkscape:connector-curvature="0"
       style="clip-rule:evenodd;fill:#ffcb05;fill-opacity:1;fill-rule:evenodd;stroke-width:1.05471599"
       sodipodi:nodetypes="cccccc" /></g></svg>